<?xml version="1.0" encoding="UTF-8" standalone="no"?><svg xmlns="http://www.w3.org/2000/svg" xmlns:xlink="http://www.w3.org/1999/xlink" contentStyleType="text/css" height="462px" preserveAspectRatio="none" style="width:1056px;height:462px;background:#FFFFFF;" version="1.1" viewBox="0 0 1056 462" width="1056px" zoomAndPan="magnify"><defs/><g><rect height="26.4883" style="stroke:#00000000;stroke-width:1.0;fill:none;" width="256" x="393.25" y="5"/><text fill="#000000" font-family="sans-serif" font-size="14" font-weight="bold" lengthAdjust="spacing" textLength="246" x="398.25" y="23.5352">Ziel-Architektur als Microservices</text><!--MD5=[f72e8905bd6e3a370cb106f12698fafd]
cluster Microservices--><g id="cluster_Microservices"><polygon points="16,163.4883,26,153.4883,847,153.4883,847,435.4883,837,445.4883,16,445.4883,16,163.4883" style="stroke:#181818;stroke-width:1.0;fill:none;"/><line style="stroke:#181818;stroke-width:1.0;fill:none;" x1="837" x2="847" y1="163.4883" y2="153.4883"/><line style="stroke:#181818;stroke-width:1.0;fill:none;" x1="16" x2="837" y1="163.4883" y2="163.4883"/><line style="stroke:#181818;stroke-width:1.0;fill:none;" x1="837" x2="837" y1="163.4883" y2="445.4883"/><text fill="#000000" font-family="sans-serif" font-size="14" font-weight="bold" lengthAdjust="spacing" textLength="98" x="378.5" y="180.0234">Microservices</text></g><!--MD5=[8671a5cfbc858215522d29d4b3ad1024]
cluster static_site--><g id="cluster_static_site"><path d="M636.5,201.4883 L810.5,201.4883 A3.75,3.75 0 0 1 813,203.9883 L820,223.9766 L820.5,223.9766 A2.5,2.5 0 0 1 823,226.4766 L823,418.9883 A2.5,2.5 0 0 1 820.5,421.4883 L636.5,421.4883 A2.5,2.5 0 0 1 634,418.9883 L634,203.9883 A2.5,2.5 0 0 1 636.5,201.4883 " style="stroke:#000000;stroke-width:1.5;fill:none;"/><line style="stroke:#000000;stroke-width:1.5;fill:none;" x1="634" x2="820" y1="223.9766" y2="223.9766"/><text fill="#000000" font-family="sans-serif" font-size="14" font-weight="bold" lengthAdjust="spacing" textLength="173" x="638" y="217.0234">statische Seiten-Service</text></g><!--MD5=[09551326e6ce6f7108f17cf1661a8512]
entity form_backend--><g id="elem_form_backend"><rect fill="#F1F1F1" height="46.4883" rx="2.5" ry="2.5" style="stroke:#181818;stroke-width:0.5;" width="132" x="243" y="236.4883"/><rect fill="#F1F1F1" height="10" style="stroke:#181818;stroke-width:0.5;" width="15" x="355" y="241.4883"/><rect fill="#F1F1F1" height="2" style="stroke:#181818;stroke-width:0.5;" width="4" x="353" y="243.4883"/><rect fill="#F1F1F1" height="2" style="stroke:#181818;stroke-width:0.5;" width="4" x="353" y="247.4883"/><text fill="#000000" font-family="sans-serif" font-size="14" lengthAdjust="spacing" textLength="92" x="258" y="270.0234">Form-Service</text></g><!--MD5=[b9f38d4837db127e9f26441a9ab53b4c]
entity comment_backend--><g id="elem_comment_backend"><rect fill="#F1F1F1" height="46.4883" rx="2.5" ry="2.5" style="stroke:#181818;stroke-width:0.5;" width="176" x="32" y="236.4883"/><rect fill="#F1F1F1" height="10" style="stroke:#181818;stroke-width:0.5;" width="15" x="188" y="241.4883"/><rect fill="#F1F1F1" height="2" style="stroke:#181818;stroke-width:0.5;" width="4" x="186" y="243.4883"/><rect fill="#F1F1F1" height="2" style="stroke:#181818;stroke-width:0.5;" width="4" x="186" y="247.4883"/><text fill="#000000" font-family="sans-serif" font-size="14" lengthAdjust="spacing" textLength="136" x="47" y="270.0234">Kommentar-Service</text></g><!--MD5=[7468467f3b6b392f1d176d828c753b77]
entity db--><g id="elem_db"><rect fill="#F1F1F1" height="46.4883" rx="2.5" ry="2.5" style="stroke:#181818;stroke-width:0.5;" width="202" x="106" y="359.4883"/><rect fill="#F1F1F1" height="10" style="stroke:#181818;stroke-width:0.5;" width="15" x="288" y="364.4883"/><rect fill="#F1F1F1" height="2" style="stroke:#181818;stroke-width:0.5;" width="4" x="286" y="366.4883"/><rect fill="#F1F1F1" height="2" style="stroke:#181818;stroke-width:0.5;" width="4" x="286" y="370.4883"/><text fill="#000000" font-family="sans-serif" font-size="14" lengthAdjust="spacing" textLength="162" x="121" y="393.0234">Datenbank - Postgresql</text></g><!--MD5=[352ef287b9f0ec53b7305306ae20b7fa]
entity doc--><g id="elem_doc"><rect fill="#F1F1F1" height="46.4883" rx="2.5" ry="2.5" style="stroke:#181818;stroke-width:0.5;" width="207" x="410.5" y="236.4883"/><rect fill="#F1F1F1" height="10" style="stroke:#181818;stroke-width:0.5;" width="15" x="597.5" y="241.4883"/><rect fill="#F1F1F1" height="2" style="stroke:#181818;stroke-width:0.5;" width="4" x="595.5" y="243.4883"/><rect fill="#F1F1F1" height="2" style="stroke:#181818;stroke-width:0.5;" width="4" x="595.5" y="247.4883"/><text fill="#000000" font-family="sans-serif" font-size="14" lengthAdjust="spacing" textLength="167" x="425.5" y="270.0234">mkdocs-Dokumentation</text></g><!--MD5=[2e0ad087fdae694c2ca5489bfcf2a365]
entity build_site--><g id="elem_build_site"><rect fill="#F1F1F1" height="46.4883" rx="2.5" ry="2.5" style="stroke:#181818;stroke-width:0.5;" width="150" x="653" y="236.4883"/><rect fill="#F1F1F1" height="10" style="stroke:#181818;stroke-width:0.5;" width="15" x="783" y="241.4883"/><rect fill="#F1F1F1" height="2" style="stroke:#181818;stroke-width:0.5;" width="4" x="781" y="243.4883"/><rect fill="#F1F1F1" height="2" style="stroke:#181818;stroke-width:0.5;" width="4" x="781" y="247.4883"/><text fill="#000000" font-family="sans-serif" font-size="14" lengthAdjust="spacing" textLength="110" x="668" y="270.0234">gebildete Seiten</text></g><!--MD5=[82b6d6c070392a2ef6fb7735d17b3b37]
entity site_builder--><g id="elem_site_builder"><rect fill="#F1F1F1" height="46.4883" rx="2.5" ry="2.5" style="stroke:#181818;stroke-width:0.5;" width="121" x="667.5" y="359.4883"/><rect fill="#F1F1F1" height="10" style="stroke:#181818;stroke-width:0.5;" width="15" x="768.5" y="364.4883"/><rect fill="#F1F1F1" height="2" style="stroke:#181818;stroke-width:0.5;" width="4" x="766.5" y="366.4883"/><rect fill="#F1F1F1" height="2" style="stroke:#181818;stroke-width:0.5;" width="4" x="766.5" y="370.4883"/><text fill="#000000" font-family="sans-serif" font-size="14" lengthAdjust="spacing" textLength="81" x="682.5" y="393.0234">Site-Builder</text></g><!--MD5=[4a65e84059005d12693a083370a06717]
entity client--><g id="elem_client"><rect fill="#F1F1F1" height="46.4883" rx="2.5" ry="2.5" style="stroke:#181818;stroke-width:0.5;" width="151" x="307.5" y="44.4883"/><rect fill="#F1F1F1" height="10" style="stroke:#181818;stroke-width:0.5;" width="15" x="438.5" y="49.4883"/><rect fill="#F1F1F1" height="2" style="stroke:#181818;stroke-width:0.5;" width="4" x="436.5" y="51.4883"/><rect fill="#F1F1F1" height="2" style="stroke:#181818;stroke-width:0.5;" width="4" x="436.5" y="55.4883"/><text fill="#000000" font-family="sans-serif" font-size="14" lengthAdjust="spacing" textLength="111" x="322.5" y="78.0234">Client - Browser</text></g><!--MD5=[d112aecbd7ccc75573a6ee2503a173b3]
entity email--><g id="elem_email"><rect fill="#F1F1F1" height="46.4883" rx="2.5" ry="2.5" style="stroke:#181818;stroke-width:0.5;" width="187" x="863.5" y="359.4883"/><rect fill="#F1F1F1" height="10" style="stroke:#181818;stroke-width:0.5;" width="15" x="1030.5" y="364.4883"/><rect fill="#F1F1F1" height="2" style="stroke:#181818;stroke-width:0.5;" width="4" x="1028.5" y="366.4883"/><rect fill="#F1F1F1" height="2" style="stroke:#181818;stroke-width:0.5;" width="4" x="1028.5" y="370.4883"/><text fill="#000000" font-family="sans-serif" font-size="14" lengthAdjust="spacing" textLength="147" x="878.5" y="393.0234">Email-Dienst (extern)</text></g><!--MD5=[e5c65cc1f6576c14fa01e8792e81a707]
link client to build_site--><g id="link_client_build_site"><path d="M458.57,76.6183 C515.31,85.7983 592.61,105.1283 649,145.4883 C679.97,167.6583 702.96,205.9083 715.92,231.6983 " fill="none" id="client-to-build_site" style="stroke:#181818;stroke-width:1.0;stroke-dasharray:7.0,7.0;"/><polygon fill="#181818" points="718.23,236.3683,717.8331,226.5274,716.0168,231.8848,710.6595,230.0685,718.23,236.3683" style="stroke:#181818;stroke-width:1.0;"/><text fill="#000000" font-family="sans-serif" font-size="13" lengthAdjust="spacing" textLength="50" x="637" y="134.0566">Ruft auf</text></g><!--MD5=[b9294a1a2a5d8ea12e9e24571a9c9962]
link client to doc--><g id="link_client_doc"><path d="M399.98,90.5583 C406.92,99.7283 414.96,110.5383 422,120.4883 C448.99,158.6383 478.74,203.8883 496.9,231.8983 " fill="none" id="client-to-doc" style="stroke:#181818;stroke-width:1.0;stroke-dasharray:7.0,7.0;"/><polygon fill="#181818" points="499.71,236.2483,498.1694,226.5207,496.9896,232.0531,491.4571,230.8733,499.71,236.2483" style="stroke:#181818;stroke-width:1.0;"/><text fill="#000000" font-family="sans-serif" font-size="13" lengthAdjust="spacing" textLength="50" x="433" y="134.0566">Ruft auf</text></g><!--MD5=[4a43886a4d85a67df7c9e4c1aef825db]
link client to form_backend--><g id="link_client_form_backend"><path d="M374.37,90.6583 C360.72,125.6983 334.21,193.7683 319.49,231.5583 " fill="none" id="client-to-form_backend" style="stroke:#181818;stroke-width:1.0;stroke-dasharray:7.0,7.0;"/><polygon fill="#181818" points="317.58,236.4583,324.5741,229.5242,319.395,231.7993,317.1198,226.6202,317.58,236.4583" style="stroke:#181818;stroke-width:1.0;"/><text fill="#000000" font-family="sans-serif" font-size="13" lengthAdjust="spacing" textLength="50" x="363" y="134.0566">Ruft auf</text></g><!--MD5=[77b5eecb2e4ba4dc8d7a194c998948b8]
link client to comment_backend--><g id="link_client_comment_backend"><path d="M325.3,90.4983 C294.03,103.8883 255.65,122.7783 225,145.4883 C191.24,170.5083 159.41,207.3183 139.84,232.0583 " fill="none" id="client-to-comment_backend" style="stroke:#181818;stroke-width:1.0;stroke-dasharray:7.0,7.0;"/><polygon fill="#181818" points="136.56,236.2283,145.2649,231.6213,139.6485,232.2962,138.9736,226.6797,136.56,236.2283" style="stroke:#181818;stroke-width:1.0;"/><text fill="#000000" font-family="sans-serif" font-size="13" lengthAdjust="spacing" textLength="50" x="263" y="134.0566">Ruft auf</text></g><!--MD5=[87837a56bb10c021e459f8b68c62450d]
link form_backend to email--><g id="link_form_backend_email"><path d="M375.24,279.0483 C381.22,280.3583 387.2,281.5283 393,282.4883 C580.28,313.3283 635.92,262.4183 819,312.4883 C854.29,322.1383 891.21,341.1383 917.97,356.7583 " fill="none" id="form_backend-to-email" style="stroke:#181818;stroke-width:1.0;stroke-dasharray:7.0,7.0;"/><polygon fill="#181818" points="922.52,359.4383,916.7976,351.4224,918.2125,356.8994,912.7355,358.3143,922.52,359.4383" style="stroke:#181818;stroke-width:1.0;"/><text fill="#000000" font-family="sans-serif" font-size="13" lengthAdjust="spacing" textLength="42" x="863" y="326.0566">sendet</text></g><!--MD5=[4dd6b02cc513017d4d6466a638175ec9]
link form_backend to db--><g id="link_form_backend_db"><path d="M292.84,282.6883 C282.61,296.4383 268.93,314.3083 256,329.4883 C248.61,338.1683 240.2,347.3283 232.47,355.4983 " fill="none" id="form_backend-to-db" style="stroke:#181818;stroke-width:1.0;stroke-dasharray:7.0,7.0;"/><polygon fill="#181818" points="228.73,359.4183,237.8264,355.6426,232.1715,355.7911,232.023,350.1362,228.73,359.4183" style="stroke:#181818;stroke-width:1.0;"/><text fill="#000000" font-family="sans-serif" font-size="13" lengthAdjust="spacing" textLength="58" x="271" y="326.0566">speichert</text></g><!--MD5=[0b2a09ef70ca1108544575b90d430219]
link comment_backend to db--><g id="link_comment_backend_db"><path d="M129.9,282.5283 C136.65,296.5483 146.28,314.7583 157,329.4883 C163.59,338.5383 171.67,347.6083 179.4,355.5783 " fill="none" id="comment_backend-to-db" style="stroke:#181818;stroke-width:1.0;stroke-dasharray:7.0,7.0;"/><polygon fill="#181818" points="183.16,359.3983,179.6987,350.1777,179.6531,355.8344,173.9964,355.7887,183.16,359.3983" style="stroke:#181818;stroke-width:1.0;"/><text fill="#000000" font-family="sans-serif" font-size="13" lengthAdjust="spacing" textLength="93" x="158" y="326.0566">speichert, liest</text></g><!--MD5=[7f7236b32e19369af30c55af99506560]
reverse link build_site to site_builder--><g id="link_build_site_site_builder"><path d="M728,287.7183 C728,309.3683 728,339.2683 728,359.4383 " fill="none" id="build_site-backto-site_builder" style="stroke:#181818;stroke-width:1.0;stroke-dasharray:7.0,7.0;"/><polygon fill="#181818" points="728,282.6783,724,291.6783,728,287.6783,732,291.6783,728,282.6783" style="stroke:#181818;stroke-width:1.0;"/><text fill="#000000" font-family="sans-serif" font-size="13" lengthAdjust="spacing" textLength="56" x="729" y="326.0566">generiert</text></g><!--MD5=[96742620864aa79613f0b09da7d7129e]
@startuml
title Ziel-Architektur als Microservices

[Client - Browser] as client
node "Microservices" {
	package "statische Seiten-Service" as static_site {
		[gebildete Seiten] as build_site
		[Site-Builder] as site_builder
	}
	[Form-Service] as form_backend
	[Kommentar-Service] as comment_backend
	[Datenbank - Postgresql] as db
	[mkdocs-Dokumentation] as doc
}

[Email-Dienst (extern)] as email

client ..> build_site: Ruft auf
client ..> doc: Ruft auf
client ..> form_backend: Ruft auf
client ..> comment_backend: Ruft auf
form_backend ..> email: sendet
form_backend ..> db: speichert
comment_backend ..> db: speichert, liest
site_builder .up.> build_site: generiert
@enduml

PlantUML version 1.2022.6(Tue Jun 21 19:34:49 CEST 2022)
(GPL source distribution)
Java Runtime: OpenJDK Runtime Environment
JVM: OpenJDK 64-Bit Server VM
Default Encoding: UTF-8
Language: de
Country: CH
--></g></svg>