<?xml version="1.0" encoding="UTF-8" standalone="no"?><svg xmlns="http://www.w3.org/2000/svg" xmlns:xlink="http://www.w3.org/1999/xlink" contentStyleType="text/css" height="660px" preserveAspectRatio="none" style="width:981px;height:660px;background:#FFFFFF;" version="1.1" viewBox="0 0 981 660" width="981px" zoomAndPan="magnify"><defs/><g><text fill="#000000" font-family="sans-serif" font-size="14" font-weight="bold" lengthAdjust="spacing" textLength="246" x="360.75" y="23.5352">Ziel-Architektur als Microservices</text><!--cluster Microservices--><g id="cluster_Microservices"><polygon fill="none" points="16,163.4883,26,153.4883,772,153.4883,772,633.4883,762,643.4883,16,643.4883,16,163.4883" style="stroke:#181818;stroke-width:1.0;"/><line style="stroke:#181818;stroke-width:1.0;" x1="762" x2="772" y1="163.4883" y2="153.4883"/><line style="stroke:#181818;stroke-width:1.0;" x1="16" x2="762" y1="163.4883" y2="163.4883"/><line style="stroke:#181818;stroke-width:1.0;" x1="762" x2="762" y1="163.4883" y2="643.4883"/><text fill="#000000" font-family="sans-serif" font-size="14" font-weight="bold" lengthAdjust="spacing" textLength="98" x="341" y="180.0234">Microservices</text></g><!--cluster static_site--><g id="cluster_static_site"><path d="M42.5,298.4883 L176.5,298.4883 A3.75,3.75 0 0 1 179,300.9883 L186,320.9766 L394.5,320.9766 A2.5,2.5 0 0 1 397,323.4766 L397,515.9883 A2.5,2.5 0 0 1 394.5,518.4883 L42.5,518.4883 A2.5,2.5 0 0 1 40,515.9883 L40,300.9883 A2.5,2.5 0 0 1 42.5,298.4883 " fill="none" style="stroke:#000000;stroke-width:1.5;"/><line style="stroke:#000000;stroke-width:1.5;" x1="40" x2="186" y1="320.9766" y2="320.9766"/><text fill="#000000" font-family="sans-serif" font-size="14" font-weight="bold" lengthAdjust="spacing" textLength="133" x="44" y="314.0234">Webseiten-Service</text></g><!--entity http_interface--><g id="elem_http_interface"><ellipse cx="221" cy="222.4883" fill="#F1F1F1" rx="8" ry="8" style="stroke:#181818;stroke-width:0.5;"/><text fill="#000000" font-family="sans-serif" font-size="14" lengthAdjust="spacing" textLength="28" x="207" y="253.0234">http</text></g><!--entity form_backend--><g id="elem_form_backend"><rect fill="#F1F1F1" height="46.4883" rx="2.5" ry="2.5" style="stroke:#181818;stroke-width:0.5;" width="132" x="624" y="456.4883"/><rect fill="#F1F1F1" height="10" style="stroke:#181818;stroke-width:0.5;" width="15" x="736" y="461.4883"/><rect fill="#F1F1F1" height="2" style="stroke:#181818;stroke-width:0.5;" width="4" x="734" y="463.4883"/><rect fill="#F1F1F1" height="2" style="stroke:#181818;stroke-width:0.5;" width="4" x="734" y="467.4883"/><text fill="#000000" font-family="sans-serif" font-size="14" lengthAdjust="spacing" textLength="92" x="639" y="490.0234">Form-Service</text></g><!--entity comment_backend--><g id="elem_comment_backend"><rect fill="#F1F1F1" height="46.4883" rx="2.5" ry="2.5" style="stroke:#181818;stroke-width:0.5;" width="176" x="413" y="456.4883"/><rect fill="#F1F1F1" height="10" style="stroke:#181818;stroke-width:0.5;" width="15" x="569" y="461.4883"/><rect fill="#F1F1F1" height="2" style="stroke:#181818;stroke-width:0.5;" width="4" x="567" y="463.4883"/><rect fill="#F1F1F1" height="2" style="stroke:#181818;stroke-width:0.5;" width="4" x="567" y="467.4883"/><text fill="#000000" font-family="sans-serif" font-size="14" lengthAdjust="spacing" textLength="136" x="428" y="490.0234">Kommentar-Service</text></g><!--entity db--><g id="elem_db"><rect fill="#F1F1F1" height="46.4883" rx="2.5" ry="2.5" style="stroke:#181818;stroke-width:0.5;" width="202" x="488" y="581.4883"/><rect fill="#F1F1F1" height="10" style="stroke:#181818;stroke-width:0.5;" width="15" x="670" y="586.4883"/><rect fill="#F1F1F1" height="2" style="stroke:#181818;stroke-width:0.5;" width="4" x="668" y="588.4883"/><rect fill="#F1F1F1" height="2" style="stroke:#181818;stroke-width:0.5;" width="4" x="668" y="592.4883"/><text fill="#000000" font-family="sans-serif" font-size="14" lengthAdjust="spacing" textLength="162" x="503" y="615.0234">Datenbank - Postgresql</text></g><!--entity doc--><g id="elem_doc"><rect fill="#F1F1F1" height="46.4883" rx="2.5" ry="2.5" style="stroke:#181818;stroke-width:0.5;" width="207" x="283.5" y="199.4883"/><rect fill="#F1F1F1" height="10" style="stroke:#181818;stroke-width:0.5;" width="15" x="470.5" y="204.4883"/><rect fill="#F1F1F1" height="2" style="stroke:#181818;stroke-width:0.5;" width="4" x="468.5" y="206.4883"/><rect fill="#F1F1F1" height="2" style="stroke:#181818;stroke-width:0.5;" width="4" x="468.5" y="210.4883"/><text fill="#000000" font-family="sans-serif" font-size="14" lengthAdjust="spacing" textLength="167" x="298.5" y="233.0234">mkdocs-Dokumentation</text></g><!--entity build_site--><g id="elem_build_site"><rect fill="#F1F1F1" height="46.4883" rx="2.5" ry="2.5" style="stroke:#181818;stroke-width:0.5;" width="150" x="56" y="333.4883"/><rect fill="#F1F1F1" height="10" style="stroke:#181818;stroke-width:0.5;" width="15" x="186" y="338.4883"/><rect fill="#F1F1F1" height="2" style="stroke:#181818;stroke-width:0.5;" width="4" x="184" y="340.4883"/><rect fill="#F1F1F1" height="2" style="stroke:#181818;stroke-width:0.5;" width="4" x="184" y="344.4883"/><text fill="#000000" font-family="sans-serif" font-size="14" lengthAdjust="spacing" textLength="110" x="71" y="367.0234">gebildete Seiten</text></g><!--entity site_builder--><g id="elem_site_builder"><rect fill="#F1F1F1" height="46.4883" rx="2.5" ry="2.5" style="stroke:#181818;stroke-width:0.5;" width="121" x="70.5" y="456.4883"/><rect fill="#F1F1F1" height="10" style="stroke:#181818;stroke-width:0.5;" width="15" x="171.5" y="461.4883"/><rect fill="#F1F1F1" height="2" style="stroke:#181818;stroke-width:0.5;" width="4" x="169.5" y="463.4883"/><rect fill="#F1F1F1" height="2" style="stroke:#181818;stroke-width:0.5;" width="4" x="169.5" y="467.4883"/><text fill="#000000" font-family="sans-serif" font-size="14" lengthAdjust="spacing" textLength="81" x="85.5" y="490.0234">Site-Builder</text></g><!--entity proxy--><g id="elem_proxy"><rect fill="#F1F1F1" height="46.4883" rx="2.5" ry="2.5" style="stroke:#181818;stroke-width:0.5;" width="140" x="241" y="333.4883"/><rect fill="#F1F1F1" height="10" style="stroke:#181818;stroke-width:0.5;" width="15" x="361" y="338.4883"/><rect fill="#F1F1F1" height="2" style="stroke:#181818;stroke-width:0.5;" width="4" x="359" y="340.4883"/><rect fill="#F1F1F1" height="2" style="stroke:#181818;stroke-width:0.5;" width="4" x="359" y="344.4883"/><text fill="#000000" font-family="sans-serif" font-size="14" lengthAdjust="spacing" textLength="100" x="256" y="367.0234">Reverse-Proxy</text></g><!--entity client--><g id="elem_client"><rect fill="#F1F1F1" height="46.4883" rx="2.5" ry="2.5" style="stroke:#181818;stroke-width:0.5;" width="151" x="228.5" y="44.4883"/><rect fill="#F1F1F1" height="10" style="stroke:#181818;stroke-width:0.5;" width="15" x="359.5" y="49.4883"/><rect fill="#F1F1F1" height="2" style="stroke:#181818;stroke-width:0.5;" width="4" x="357.5" y="51.4883"/><rect fill="#F1F1F1" height="2" style="stroke:#181818;stroke-width:0.5;" width="4" x="357.5" y="55.4883"/><text fill="#000000" font-family="sans-serif" font-size="14" lengthAdjust="spacing" textLength="111" x="243.5" y="78.0234">Client - Browser</text></g><!--entity email--><g id="elem_email"><rect fill="#F1F1F1" height="46.4883" rx="2.5" ry="2.5" style="stroke:#181818;stroke-width:0.5;" width="187" x="788.5" y="581.4883"/><rect fill="#F1F1F1" height="10" style="stroke:#181818;stroke-width:0.5;" width="15" x="955.5" y="586.4883"/><rect fill="#F1F1F1" height="2" style="stroke:#181818;stroke-width:0.5;" width="4" x="953.5" y="588.4883"/><rect fill="#F1F1F1" height="2" style="stroke:#181818;stroke-width:0.5;" width="4" x="953.5" y="592.4883"/><text fill="#000000" font-family="sans-serif" font-size="14" lengthAdjust="spacing" textLength="147" x="803.5" y="615.0234">Email-Dienst (extern)</text></g><!--link client to http_interface--><g id="link_client_http_interface"><path d="M278.95,90.7783 C270.43,99.3883 261.44,109.7483 255,120.4883 C237.9,148.9983 228.06,187.2483 223.7,207.5183 " fill="none" id="client-to-http_interface" style="stroke:#181818;stroke-width:1.0;stroke-dasharray:7.0,7.0;"/><polygon fill="#181818" points="222.74,212.1783,228.4813,204.1759,223.7535,207.2821,220.6473,202.5543,222.74,212.1783" style="stroke:#181818;stroke-width:1.0;"/><text fill="#000000" font-family="sans-serif" font-size="13" lengthAdjust="spacing" textLength="74" x="256" y="134.0566">http-Aufruf</text></g><!--link http_interface to build_site--><g id="link_http_interface_build_site"><path d="M215.64,231.3483 C202.21,251.0583 166.71,303.1083 146.21,333.1883 " fill="none" id="http_interface-build_site" style="stroke:#181818;stroke-width:1.0;"/></g><!--link http_interface to proxy--><g id="link_http_interface_proxy"><path d="M226.36,231.3483 C239.79,251.0583 275.29,303.1083 295.79,333.1883 " fill="none" id="http_interface-proxy" style="stroke:#181818;stroke-width:1.0;"/></g><!--link client to doc--><g id="link_client_doc"><path d="M317.74,90.8383 C323.23,99.9583 329.54,110.6583 335,120.4883 C348.5,144.8183 362.91,173.0083 373.13,193.4083 " fill="none" id="client-to-doc" style="stroke:#181818;stroke-width:1.0;stroke-dasharray:7.0,7.0;"/><polygon fill="#181818" points="375.35,197.8583,374.8902,188.0202,373.1082,193.389,367.7394,191.607,375.35,197.8583" style="stroke:#181818;stroke-width:1.0;"/><text fill="#000000" font-family="sans-serif" font-size="13" lengthAdjust="spacing" textLength="50" x="344" y="134.0566">Ruft auf</text></g><!--link proxy to form_backend--><g id="link_proxy_form_backend"><path d="M381.32,379.3483 C410.89,388.5883 445.63,399.4983 477,409.4883 C523.95,424.4483 576.63,441.5083 617.85,454.9283 " fill="none" id="proxy-to-form_backend" style="stroke:#181818;stroke-width:1.0;stroke-dasharray:7.0,7.0;"/><polygon fill="#181818" points="622.41,456.4083,615.083,449.8268,617.6539,454.8658,612.615,457.4366,622.41,456.4083" style="stroke:#181818;stroke-width:1.0;"/><text fill="#000000" font-family="sans-serif" font-size="13" lengthAdjust="spacing" textLength="50" x="530" y="423.0566">Ruft auf</text></g><!--link proxy to comment_backend--><g id="link_proxy_comment_backend"><path d="M346.29,379.9683 C378.69,400.5983 426.66,431.1383 460.58,452.7483 " fill="none" id="proxy-to-comment_backend" style="stroke:#181818;stroke-width:1.0;stroke-dasharray:7.0,7.0;"/><polygon fill="#181818" points="464.62,455.3183,459.1799,447.1082,460.4035,452.6311,454.8805,453.8546,464.62,455.3183" style="stroke:#181818;stroke-width:1.0;"/><text fill="#000000" font-family="sans-serif" font-size="13" lengthAdjust="spacing" textLength="50" x="418" y="423.0566">Ruft auf</text></g><!--link form_backend to email--><g id="link_form_backend_email"><path d="M724.77,502.7583 C757.7,523.8583 807.12,555.5183 841.74,577.6983 " fill="none" id="form_backend-to-email" style="stroke:#181818;stroke-width:1.0;stroke-dasharray:7.0,7.0;"/><polygon fill="#181818" points="845.89,580.3583,840.4626,572.1398,841.6776,577.6646,836.1528,578.8796,845.89,580.3583" style="stroke:#181818;stroke-width:1.0;"/><text fill="#000000" font-family="sans-serif" font-size="13" lengthAdjust="spacing" textLength="42" x="798" y="548.0566">sendet</text></g><!--link form_backend to db--><g id="link_form_backend_db"><path d="M671.71,502.7583 C654.69,523.4883 629.3,554.4083 611.14,576.5183 " fill="none" id="form_backend-to-db" style="stroke:#181818;stroke-width:1.0;stroke-dasharray:7.0,7.0;"/><polygon fill="#181818" points="608.11,580.2083,616.9157,575.7969,611.2855,576.3462,610.7362,570.716,608.11,580.2083" style="stroke:#181818;stroke-width:1.0;"/><text fill="#000000" font-family="sans-serif" font-size="13" lengthAdjust="spacing" textLength="58" x="646" y="548.0566">speichert</text></g><!--link comment_backend to db--><g id="link_comment_backend_db"><path d="M505.14,502.7583 C508.67,517.5483 514.83,536.8483 525,551.4883 C531.62,561.0083 540.45,569.7183 549.44,577.1583 " fill="none" id="comment_backend-to-db" style="stroke:#181818;stroke-width:1.0;stroke-dasharray:7.0,7.0;"/><polygon fill="#181818" points="553.26,580.2183,548.7427,571.4665,549.3598,577.0896,543.7368,577.7068,553.26,580.2183" style="stroke:#181818;stroke-width:1.0;"/><text fill="#000000" font-family="sans-serif" font-size="13" lengthAdjust="spacing" textLength="93" x="526" y="548.0566">speichert, liest</text></g><!--reverse link build_site to site_builder--><g id="link_build_site_site_builder"><path d="M99.29,384.3583 C92.66,391.7583 86.59,400.2983 83,409.4883 C76.36,426.4783 87.65,443.3283 100.94,456.1183 " fill="none" id="build_site-backto-site_builder" style="stroke:#181818;stroke-width:1.0;stroke-dasharray:7.0,7.0;"/><polygon fill="#181818" points="102.44,381.0083,93.3589,384.8206,99.0132,384.6493,99.1845,390.3035,102.44,381.0083" style="stroke:#181818;stroke-width:1.0;"/><text fill="#000000" font-family="sans-serif" font-size="13" lengthAdjust="spacing" textLength="56" x="84" y="423.0566">generiert</text></g><!--SRC=[RP5DJiCm48NNyIb6NRKIxW6wG2eKDWYfQXT8L2Xod4bgvSV1dfGYrBipTa2aBIl7xtqpddaXGpN2gy5QBftU6yAAUWUgzl1ijBCUtS5ez4Bixck3BO64EsS_M7y3vK57KRGsHvYSLKpWIoJJ6Uo9ka26CpKjeIkKHf5qIbUgvAeNp3pomwtS3gMJW7jIP7JgsGYDabs9cQbpvEisql7vh6SjGW7PyYdlWlGpNJ3IR102iC43EezoxUpnCn9T-1B9IIIxH-kQtn6YLx2GPZmcjZdxJxPfU5VbpY0zg2DkfNYwJBKLHxMsdag7_hsES9wntrIvrLwkRDN7VcJii0pBuiH1FpJAr7B5mNg2AHuvidOM2GoE44FeC9_VNgIwY7Uvx0lN5-BS0od7SLsRGnIZtZpF0ZPzGQ2uMxIZFixbN-0Yan4pBeret6W1dkz8rtQUiTUXqNjq92xwNXCtmDDx4kF_3lE-O-vlzGMKsA8pp7y3]--></g></svg>