<?xml version="1.0" encoding="UTF-8" standalone="no"?><svg xmlns="http://www.w3.org/2000/svg" xmlns:xlink="http://www.w3.org/1999/xlink" contentStyleType="text/css" height="472px" preserveAspectRatio="none" style="width:1039px;height:472px;background:#FFFFFF;" version="1.1" viewBox="0 0 1039 472" width="1039px" zoomAndPan="magnify"><defs/><g><rect height="26.4883" style="stroke:#00000000;stroke-width:1.0;fill:none;" width="194" x="415.5" y="5"/><text fill="#000000" font-family="sans-serif" font-size="14" font-weight="bold" lengthAdjust="spacing" textLength="184" x="420.5" y="23.5352">Monolith - Komponenten</text><!--MD5=[489b2b70e8a4fd6f3fbb29434dcab199]
cluster monolith--><g id="cluster_monolith"><polygon points="230.5,163.4883,240.5,153.4883,829.5,153.4883,829.5,445.4883,819.5,455.4883,230.5,455.4883,230.5,163.4883" style="stroke:#181818;stroke-width:1.0;fill:none;"/><line style="stroke:#181818;stroke-width:1.0;fill:none;" x1="819.5" x2="829.5" y1="163.4883" y2="153.4883"/><line style="stroke:#181818;stroke-width:1.0;fill:none;" x1="230.5" x2="819.5" y1="163.4883" y2="163.4883"/><line style="stroke:#181818;stroke-width:1.0;fill:none;" x1="819.5" x2="819.5" y1="163.4883" y2="455.4883"/><text fill="#000000" font-family="sans-serif" font-size="14" font-weight="bold" lengthAdjust="spacing" textLength="65" x="493.5" y="180.0234">Monolith</text></g><!--MD5=[3001be5fbd02421531fae84a03d05a1b]
cluster webserver--><g id="cluster_webserver"><path d="M265,209.4883 L461,209.4883 A3.75,3.75 0 0 1 463.5,211.9883 L470.5,231.9766 L795,231.9766 A2.5,2.5 0 0 1 797.5,234.4766 L797.5,319.9883 A2.5,2.5 0 0 1 795,322.4883 L265,322.4883 A2.5,2.5 0 0 1 262.5,319.9883 L262.5,211.9883 A2.5,2.5 0 0 1 265,209.4883 " style="stroke:#000000;stroke-width:1.5;fill:none;"/><line style="stroke:#000000;stroke-width:1.5;fill:none;" x1="262.5" x2="470.5" y1="231.9766" y2="231.9766"/><text fill="#000000" font-family="sans-serif" font-size="14" font-weight="bold" lengthAdjust="spacing" textLength="195" x="266.5" y="225.0234">Web-Server mit App-Logik</text></g><!--MD5=[7468467f3b6b392f1d176d828c753b77]
entity db--><g id="elem_db"><rect fill="#F1F1F1" height="46.4883" rx="2.5" ry="2.5" style="stroke:#181818;stroke-width:0.5;" width="248" x="246.5" y="393.4883"/><rect fill="#F1F1F1" height="10" style="stroke:#181818;stroke-width:0.5;" width="15" x="474.5" y="398.4883"/><rect fill="#F1F1F1" height="2" style="stroke:#181818;stroke-width:0.5;" width="4" x="472.5" y="400.4883"/><rect fill="#F1F1F1" height="2" style="stroke:#181818;stroke-width:0.5;" width="4" x="472.5" y="404.4883"/><text fill="#000000" font-family="sans-serif" font-size="14" lengthAdjust="spacing" textLength="208" x="261.5" y="427.0234">Datenbank - sqlite in-memory</text></g><!--MD5=[de85803019e1fbc688521ea789918df2]
entity static_site--><g id="elem_static_site"><rect fill="#F1F1F1" height="46.4883" rx="2.5" ry="2.5" style="stroke:#181818;stroke-width:0.5;" width="146" x="627.5" y="252.4883"/><rect fill="#F1F1F1" height="10" style="stroke:#181818;stroke-width:0.5;" width="15" x="753.5" y="257.4883"/><rect fill="#F1F1F1" height="2" style="stroke:#181818;stroke-width:0.5;" width="4" x="751.5" y="259.4883"/><rect fill="#F1F1F1" height="2" style="stroke:#181818;stroke-width:0.5;" width="4" x="751.5" y="263.4883"/><text fill="#000000" font-family="sans-serif" font-size="14" lengthAdjust="spacing" textLength="106" x="642.5" y="286.0234">statische Seiten</text></g><!--MD5=[09551326e6ce6f7108f17cf1661a8512]
entity form_backend--><g id="elem_form_backend"><rect fill="#F1F1F1" height="46.4883" rx="2.5" ry="2.5" style="stroke:#181818;stroke-width:0.5;" width="142" x="450.5" y="252.4883"/><rect fill="#F1F1F1" height="10" style="stroke:#181818;stroke-width:0.5;" width="15" x="572.5" y="257.4883"/><rect fill="#F1F1F1" height="2" style="stroke:#181818;stroke-width:0.5;" width="4" x="570.5" y="259.4883"/><rect fill="#F1F1F1" height="2" style="stroke:#181818;stroke-width:0.5;" width="4" x="570.5" y="263.4883"/><text fill="#000000" font-family="sans-serif" font-size="14" lengthAdjust="spacing" textLength="102" x="465.5" y="286.0234">Form-backend</text></g><!--MD5=[e2307af040e3f87d22824e7603ca28ec]
entity api--><g id="elem_api"><rect fill="#F1F1F1" height="46.4883" rx="2.5" ry="2.5" style="stroke:#181818;stroke-width:0.5;" width="110" x="305.5" y="252.4883"/><rect fill="#F1F1F1" height="10" style="stroke:#181818;stroke-width:0.5;" width="15" x="395.5" y="257.4883"/><rect fill="#F1F1F1" height="2" style="stroke:#181818;stroke-width:0.5;" width="4" x="393.5" y="259.4883"/><rect fill="#F1F1F1" height="2" style="stroke:#181818;stroke-width:0.5;" width="4" x="393.5" y="263.4883"/><text fill="#000000" font-family="sans-serif" font-size="14" lengthAdjust="spacing" textLength="70" x="320.5" y="286.0234">Demo-API</text></g><!--MD5=[4a65e84059005d12693a083370a06717]
entity client--><g id="elem_client"><rect fill="#F1F1F1" height="46.4883" rx="2.5" ry="2.5" style="stroke:#181818;stroke-width:0.5;" width="151" x="81" y="44.4883"/><rect fill="#F1F1F1" height="10" style="stroke:#181818;stroke-width:0.5;" width="15" x="212" y="49.4883"/><rect fill="#F1F1F1" height="2" style="stroke:#181818;stroke-width:0.5;" width="4" x="210" y="51.4883"/><rect fill="#F1F1F1" height="2" style="stroke:#181818;stroke-width:0.5;" width="4" x="210" y="55.4883"/><text fill="#000000" font-family="sans-serif" font-size="14" lengthAdjust="spacing" textLength="111" x="96" y="78.0234">Client - Browser</text></g><!--MD5=[82b6d6c070392a2ef6fb7735d17b3b37]
entity site_builder--><g id="elem_site_builder"><rect fill="#F1F1F1" height="46.4883" rx="2.5" ry="2.5" style="stroke:#181818;stroke-width:0.5;" width="121" x="847" y="252.4883"/><rect fill="#F1F1F1" height="10" style="stroke:#181818;stroke-width:0.5;" width="15" x="948" y="257.4883"/><rect fill="#F1F1F1" height="2" style="stroke:#181818;stroke-width:0.5;" width="4" x="946" y="259.4883"/><rect fill="#F1F1F1" height="2" style="stroke:#181818;stroke-width:0.5;" width="4" x="946" y="263.4883"/><text fill="#000000" font-family="sans-serif" font-size="14" lengthAdjust="spacing" textLength="81" x="862" y="286.0234">Site-Builder</text></g><!--MD5=[d112aecbd7ccc75573a6ee2503a173b3]
entity email--><g id="elem_email"><rect fill="#F1F1F1" height="46.4883" rx="2.5" ry="2.5" style="stroke:#181818;stroke-width:0.5;" width="187" x="846" y="393.4883"/><rect fill="#F1F1F1" height="10" style="stroke:#181818;stroke-width:0.5;" width="15" x="1013" y="398.4883"/><rect fill="#F1F1F1" height="2" style="stroke:#181818;stroke-width:0.5;" width="4" x="1011" y="400.4883"/><rect fill="#F1F1F1" height="2" style="stroke:#181818;stroke-width:0.5;" width="4" x="1011" y="404.4883"/><text fill="#000000" font-family="sans-serif" font-size="14" lengthAdjust="spacing" textLength="147" x="861" y="427.0234">Email-Dienst (extern)</text></g><!--MD5=[352ef287b9f0ec53b7305306ae20b7fa]
entity doc--><g id="elem_doc"><rect fill="#F1F1F1" height="46.4883" rx="2.5" ry="2.5" style="stroke:#181818;stroke-width:0.5;" width="207" x="7" y="252.4883"/><rect fill="#F1F1F1" height="10" style="stroke:#181818;stroke-width:0.5;" width="15" x="194" y="257.4883"/><rect fill="#F1F1F1" height="2" style="stroke:#181818;stroke-width:0.5;" width="4" x="192" y="259.4883"/><rect fill="#F1F1F1" height="2" style="stroke:#181818;stroke-width:0.5;" width="4" x="192" y="263.4883"/><text fill="#000000" font-family="sans-serif" font-size="14" lengthAdjust="spacing" textLength="167" x="22" y="286.0234">mkdocs-Dokumentation</text></g><!--MD5=[e0aa378807f06caacf10935ce2977683]
link client to webserver--><g id="link_client_webserver"><path d="M183.8,90.5783 C199.73,104.7583 219.08,124.4283 231.5,145.4883 C246.475,170.8783 256.1575,202.5258 262.1288,228.1195 C262.2221,228.5194 262.3144,228.9179 262.4059,229.3148 " fill="none" id="client-to-webserver" style="stroke:#181818;stroke-width:1.0;stroke-dasharray:7.0,7.0;"/><polygon fill="#181818" points="262.4059,229.3148,264.282,219.6462,261.2828,224.4425,256.4865,221.4433,262.4059,229.3148" style="stroke:#181818;stroke-width:1.0;"/><text fill="#000000" font-family="sans-serif" font-size="13" lengthAdjust="spacing" textLength="50" x="225.5" y="134.0566">Ruft auf</text></g><!--MD5=[b9294a1a2a5d8ea12e9e24571a9c9962]
link client to doc--><g id="link_client_doc"><path d="M149.67,90.6483 C146.96,99.8383 143.91,110.6283 141.5,120.4883 C130.73,164.5683 120.86,216.3983 115.28,247.2883 " fill="none" id="client-to-doc" style="stroke:#181818;stroke-width:1.0;stroke-dasharray:7.0,7.0;"/><polygon fill="#181818" points="114.35,252.4283,119.8788,244.2777,115.2344,247.5071,112.005,242.8627,114.35,252.4283" style="stroke:#181818;stroke-width:1.0;"/><text fill="#000000" font-family="sans-serif" font-size="13" lengthAdjust="spacing" textLength="50" x="142.5" y="134.0566">Ruft auf</text></g><!--MD5=[1b9dbcfdb69d97b7ce5f2d963fc4ed75]
link api to db--><g id="link_api_db"><path d="M362.08,298.5083 C363.83,322.7683 366.64,361.8083 368.53,388.0383 " fill="none" id="api-to-db" style="stroke:#181818;stroke-width:1.0;stroke-dasharray:7.0,7.0;"/><polygon fill="#181818" points="368.89,393.1083,372.2367,383.8455,368.5327,388.1211,364.2572,384.4171,368.89,393.1083" style="stroke:#181818;stroke-width:1.0;"/><text fill="#000000" font-family="sans-serif" font-size="13" lengthAdjust="spacing" textLength="49" x="367.5" y="360.0566">fragt ab</text></g><!--MD5=[87837a56bb10c021e459f8b68c62450d]
link form_backend to email--><g id="link_form_backend_email"><path d="M545.09,298.6183 C561.92,312.8783 585.85,330.2483 610.5,338.4883 C656.69,353.9183 782.95,332.1683 829.5,346.4883 C858.79,355.4983 887.99,374.3983 908.94,390.1383 " fill="none" id="form_backend-to-email" style="stroke:#181818;stroke-width:1.0;stroke-dasharray:7.0,7.0;"/><polygon fill="#181818" points="913.01,393.2383,908.2641,384.6083,909.0289,390.2132,903.424,390.9781,913.01,393.2383" style="stroke:#181818;stroke-width:1.0;"/><text fill="#000000" font-family="sans-serif" font-size="13" lengthAdjust="spacing" textLength="42" x="865.5" y="360.0566">sendet</text></g><!--MD5=[b8ce1100f9ee281aaba5ddc98844d43a]
reverse link static_site to site_builder--><g id="link_static_site_site_builder"><path d="M778.86,275.4883 C801.42,275.4883 825.67,275.4883 846.97,275.4883 " fill="none" id="static_site-backto-site_builder" style="stroke:#181818;stroke-width:1.0;stroke-dasharray:7.0,7.0;"/><polygon fill="#181818" points="773.77,275.4883,782.77,279.4883,778.77,275.4883,782.77,271.4883,773.77,275.4883" style="stroke:#181818;stroke-width:1.0;"/><text fill="#000000" font-family="sans-serif" font-size="13" lengthAdjust="spacing" textLength="37" x="791.75" y="269.0566">liefert</text></g><!--MD5=[a18e8aa74ba48296b05477ebbb92aa58]
@startuml
title Monolith - Komponenten

[Client - Browser] as client
node "Monolith" as monolith {
	package "Web-Server mit App-Logik" as webserver {
		[statische Seiten] as static_site
		[Form-backend] as form_backend
		[Demo-API] as api
	}
	[Datenbank - sqlite in-memory] as db
}
[Site-Builder] as site_builder

[Email-Dienst (extern)] as email
[mkdocs-Dokumentation] as doc

client ..> webserver: Ruft auf
client ..> doc: Ruft auf
api ..> db: fragt ab
form_backend ..> email: sendet
site_builder .left.> static_site: liefert
@enduml

PlantUML version 1.2022.6(Tue Jun 21 19:34:49 CEST 2022)
(GPL source distribution)
Java Runtime: OpenJDK Runtime Environment
JVM: OpenJDK 64-Bit Server VM
Default Encoding: UTF-8
Language: de
Country: CH
--></g></svg>