<?xml version="1.0" encoding="UTF-8" standalone="no"?><svg xmlns="http://www.w3.org/2000/svg" xmlns:xlink="http://www.w3.org/1999/xlink" contentStyleType="text/css" height="917px" preserveAspectRatio="none" style="width:1399px;height:917px;background:#FFFFFF;" version="1.1" viewBox="0 0 1399 917" width="1399px" zoomAndPan="magnify"><defs/><g><rect fill="none" height="26.4883" id="_title" style="stroke:none;stroke-width:1.0;" width="219" x="583.25" y="5"/><text fill="#000000" font-family="sans-serif" font-size="14" font-weight="bold" lengthAdjust="spacing" textLength="209" x="588.25" y="23.5352">Microservice - Komponenten</text><!--MD5=[1adef828005f1e1211a601d8a9920c88]
cluster Docker-Dienste--><g id="cluster_Docker-Dienste"><rect fill="none" height="649" rx="2.5" ry="2.5" style="stroke:#181818;stroke-width:1.0;" width="1183" x="7" y="262.4883"/><text fill="#000000" font-family="sans-serif" font-size="14" font-weight="bold" lengthAdjust="spacing" textLength="114" x="541.5" y="278.0234">Docker-Dienste</text></g><g id="cluster_##6"><rect fill="#CCFFEE" height="374" rx="2.5" ry="2.5" style="stroke:#181818;stroke-width:1.0;" width="349" x="491" y="513.4883"/></g><!--MD5=[40c74b2db32dfb02a7ff35a3bff0fe87]
cluster api_service--><g id="cluster_api_service"><polygon fill="none" points="515,547.4883,525,537.4883,816,537.4883,816,853.4883,806,863.4883,515,863.4883,515,547.4883" style="stroke:#181818;stroke-width:1.0;"/><line style="stroke:#181818;stroke-width:1.0;" x1="806" x2="816" y1="547.4883" y2="537.4883"/><line style="stroke:#181818;stroke-width:1.0;" x1="515" x2="806" y1="547.4883" y2="547.4883"/><line style="stroke:#181818;stroke-width:1.0;" x1="806" x2="806" y1="547.4883" y2="863.4883"/><text fill="#000000" font-family="sans-serif" font-size="14" font-weight="bold" lengthAdjust="spacing" textLength="83" x="620" y="564.0234">API-Service</text></g><!--MD5=[a211b6b4578c7637cec3453f71318e72]
cluster api_server--><g id="cluster_api_server"><path d="M575.5,593.4883 L771.5,593.4883 A3.75,3.75 0 0 1 774,595.9883 L781,615.9766 L781.5,615.9766 A2.5,2.5 0 0 1 784,618.4766 L784,703.9883 A2.5,2.5 0 0 1 781.5,706.4883 L575.5,706.4883 A2.5,2.5 0 0 1 573,703.9883 L573,595.9883 A2.5,2.5 0 0 1 575.5,593.4883 " fill="none" style="stroke:#000000;stroke-width:1.5;"/><line style="stroke:#000000;stroke-width:1.5;" x1="573" x2="781" y1="615.9766" y2="615.9766"/><text fill="#000000" font-family="sans-serif" font-size="14" font-weight="bold" lengthAdjust="spacing" textLength="195" x="577" y="609.0234">Web-Server mit App-Logik</text></g><!--MD5=[0baca7324fcec12e9ff71112e7d863b3]
cluster feedback--><g id="cluster_feedback"><polygon fill="none" points="864,547.4883,874,537.4883,1166,537.4883,1166,728.4883,1156,738.4883,864,738.4883,864,547.4883" style="stroke:#181818;stroke-width:1.0;"/><line style="stroke:#181818;stroke-width:1.0;" x1="1156" x2="1166" y1="547.4883" y2="537.4883"/><line style="stroke:#181818;stroke-width:1.0;" x1="864" x2="1156" y1="547.4883" y2="547.4883"/><line style="stroke:#181818;stroke-width:1.0;" x1="1156" x2="1156" y1="547.4883" y2="738.4883"/><text fill="#000000" font-family="sans-serif" font-size="14" font-weight="bold" lengthAdjust="spacing" textLength="122" x="950" y="564.0234">Feedback-Dienst</text></g><!--MD5=[52d0a895dd9a500d37619d8281e4f769]
cluster feedback_webserver--><g id="cluster_feedback_webserver"><path d="M927.5,593.4883 L1002.5,593.4883 A3.75,3.75 0 0 1 1005,595.9883 L1012,615.9766 L1131.5,615.9766 A2.5,2.5 0 0 1 1134,618.4766 L1134,703.9883 A2.5,2.5 0 0 1 1131.5,706.4883 L927.5,706.4883 A2.5,2.5 0 0 1 925,703.9883 L925,595.9883 A2.5,2.5 0 0 1 927.5,593.4883 " fill="none" style="stroke:#000000;stroke-width:1.5;"/><line style="stroke:#000000;stroke-width:1.5;" x1="925" x2="1012" y1="615.9766" y2="615.9766"/><text fill="#000000" font-family="sans-serif" font-size="14" font-weight="bold" lengthAdjust="spacing" textLength="74" x="929" y="609.0234">Webserver</text></g><!--MD5=[23cbaadc18b1780d966e07254adaec4d]
cluster frontend--><g id="cluster_frontend"><polygon fill="none" points="31,315.4883,41,305.4883,467,305.4883,467,728.4883,457,738.4883,31,738.4883,31,315.4883" style="stroke:#181818;stroke-width:1.0;"/><line style="stroke:#181818;stroke-width:1.0;" x1="457" x2="467" y1="315.4883" y2="305.4883"/><line style="stroke:#181818;stroke-width:1.0;" x1="31" x2="457" y1="315.4883" y2="315.4883"/><line style="stroke:#181818;stroke-width:1.0;" x1="457" x2="457" y1="315.4883" y2="738.4883"/><text fill="#000000" font-family="sans-serif" font-size="14" font-weight="bold" lengthAdjust="spacing" textLength="123" x="183.5" y="332.0234">Frontend-Service</text></g><!--MD5=[e43b1d5ace51cf10c1ef33b793cbd9b3]
cluster front_webserver--><g id="cluster_front_webserver"><path d="M65.5,361.4883 L140.5,361.4883 A3.75,3.75 0 0 1 143,363.9883 L150,383.9766 L432.5,383.9766 A2.5,2.5 0 0 1 435,386.4766 L435,703.9883 A2.5,2.5 0 0 1 432.5,706.4883 L65.5,706.4883 A2.5,2.5 0 0 1 63,703.9883 L63,363.9883 A2.5,2.5 0 0 1 65.5,361.4883 " fill="none" style="stroke:#000000;stroke-width:1.5;"/><line style="stroke:#000000;stroke-width:1.5;" x1="63" x2="150" y1="383.9766" y2="383.9766"/><text fill="#000000" font-family="sans-serif" font-size="14" font-weight="bold" lengthAdjust="spacing" textLength="74" x="67" y="377.0234">Webserver</text></g><!--MD5=[76d9f2b8b66a2b4d8561cb0536fda557]
entity http_api_int--><g id="elem_http_api_int"><ellipse cx="540" cy="659.4883" fill="#F1F1F1" rx="8" ry="8" style="stroke:#181818;stroke-width:0.5;"/><text fill="#000000" font-family="sans-serif" font-size="14" lengthAdjust="spacing" textLength="76" x="502" y="690.0234">HTTP:3000</text></g><!--MD5=[7468467f3b6b392f1d176d828c753b77]
entity db--><g id="elem_db"><rect fill="#F1F1F1" height="46.4883" rx="2.5" ry="2.5" style="stroke:#181818;stroke-width:0.5;" width="248" x="551" y="801.4883"/><rect fill="#F1F1F1" height="10" style="stroke:#181818;stroke-width:0.5;" width="15" x="779" y="806.4883"/><rect fill="#F1F1F1" height="2" style="stroke:#181818;stroke-width:0.5;" width="4" x="777" y="808.4883"/><rect fill="#F1F1F1" height="2" style="stroke:#181818;stroke-width:0.5;" width="4" x="777" y="812.4883"/><text fill="#000000" font-family="sans-serif" font-size="14" lengthAdjust="spacing" textLength="208" x="566" y="835.0234">Datenbank - sqlite in-memory</text></g><!--MD5=[e2307af040e3f87d22824e7603ca28ec]
entity api--><g id="elem_api"><rect fill="#F1F1F1" height="46.4883" rx="2.5" ry="2.5" style="stroke:#181818;stroke-width:0.5;" width="110" x="620" y="636.4883"/><rect fill="#F1F1F1" height="10" style="stroke:#181818;stroke-width:0.5;" width="15" x="710" y="641.4883"/><rect fill="#F1F1F1" height="2" style="stroke:#181818;stroke-width:0.5;" width="4" x="708" y="643.4883"/><rect fill="#F1F1F1" height="2" style="stroke:#181818;stroke-width:0.5;" width="4" x="708" y="647.4883"/><text fill="#000000" font-family="sans-serif" font-size="14" lengthAdjust="spacing" textLength="70" x="635" y="670.0234">Demo-API</text></g><!--MD5=[21e97b73a141fb924fc1ccac418b209c]
entity http2--><g id="elem_http2"><ellipse cx="889" cy="659.4883" fill="#F1F1F1" rx="8" ry="8" style="stroke:#181818;stroke-width:0.5;"/><text fill="#000000" font-family="sans-serif" font-size="14" lengthAdjust="spacing" textLength="76" x="851" y="690.0234">HTTP:3000</text></g><!--MD5=[09551326e6ce6f7108f17cf1661a8512]
entity form_backend--><g id="elem_form_backend"><rect fill="#F1F1F1" height="46.4883" rx="2.5" ry="2.5" style="stroke:#181818;stroke-width:0.5;" width="142" x="968" y="636.4883"/><rect fill="#F1F1F1" height="10" style="stroke:#181818;stroke-width:0.5;" width="15" x="1090" y="641.4883"/><rect fill="#F1F1F1" height="2" style="stroke:#181818;stroke-width:0.5;" width="4" x="1088" y="643.4883"/><rect fill="#F1F1F1" height="2" style="stroke:#181818;stroke-width:0.5;" width="4" x="1088" y="647.4883"/><text fill="#000000" font-family="sans-serif" font-size="14" lengthAdjust="spacing" textLength="102" x="983" y="670.0234">Form-backend</text></g><!--MD5=[de85803019e1fbc688521ea789918df2]
entity static_site--><g id="elem_static_site"><rect fill="#F1F1F1" height="46.4883" rx="2.5" ry="2.5" style="stroke:#181818;stroke-width:0.5;" width="146" x="106" y="404.4883"/><rect fill="#F1F1F1" height="10" style="stroke:#181818;stroke-width:0.5;" width="15" x="232" y="409.4883"/><rect fill="#F1F1F1" height="2" style="stroke:#181818;stroke-width:0.5;" width="4" x="230" y="411.4883"/><rect fill="#F1F1F1" height="2" style="stroke:#181818;stroke-width:0.5;" width="4" x="230" y="415.4883"/><text fill="#000000" font-family="sans-serif" font-size="14" lengthAdjust="spacing" textLength="106" x="121" y="438.0234">statische Seiten</text></g><!--MD5=[82b6d6c070392a2ef6fb7735d17b3b37]
entity site_builder--><g id="elem_site_builder"><rect fill="#F1F1F1" height="46.4883" rx="2.5" ry="2.5" style="stroke:#181818;stroke-width:0.5;" width="121" x="118.5" y="636.4883"/><rect fill="#F1F1F1" height="10" style="stroke:#181818;stroke-width:0.5;" width="15" x="219.5" y="641.4883"/><rect fill="#F1F1F1" height="2" style="stroke:#181818;stroke-width:0.5;" width="4" x="217.5" y="643.4883"/><rect fill="#F1F1F1" height="2" style="stroke:#181818;stroke-width:0.5;" width="4" x="217.5" y="647.4883"/><text fill="#000000" font-family="sans-serif" font-size="14" lengthAdjust="spacing" textLength="81" x="133.5" y="670.0234">Site-Builder</text></g><!--MD5=[e937783d151d78c9e87fd4c0d99f7485]
entity proxy--><g id="elem_proxy"><rect fill="#F1F1F1" height="46.4883" rx="2.5" ry="2.5" style="stroke:#181818;stroke-width:0.5;" width="123" x="287.5" y="404.4883"/><rect fill="#F1F1F1" height="10" style="stroke:#181818;stroke-width:0.5;" width="15" x="390.5" y="409.4883"/><rect fill="#F1F1F1" height="2" style="stroke:#181818;stroke-width:0.5;" width="4" x="388.5" y="411.4883"/><rect fill="#F1F1F1" height="2" style="stroke:#181818;stroke-width:0.5;" width="4" x="388.5" y="415.4883"/><text fill="#000000" font-family="sans-serif" font-size="14" lengthAdjust="spacing" textLength="83" x="302.5" y="438.0234">HTTP-Proxy</text></g><!--MD5=[3623719a8867d1425865214cf26ec666]
entity http_webserver--><g id="elem_http_webserver"><ellipse cx="71" cy="186.4883" fill="#F1F1F1" rx="8" ry="8" style="stroke:#181818;stroke-width:0.5;"/><text fill="#000000" font-family="sans-serif" font-size="14" lengthAdjust="spacing" textLength="58" x="42" y="217.0234">HTTP:80</text></g><!--MD5=[6af16942df121cc661ecdb5014b53054]
entity http_api--><g id="elem_http_api"><ellipse cx="307" cy="67.4883" fill="#F1F1F1" rx="8" ry="8" style="stroke:#181818;stroke-width:0.5;"/><text fill="#000000" font-family="sans-serif" font-size="14" lengthAdjust="spacing" textLength="58" x="278" y="98.0234">HTTP:80</text></g><!--MD5=[4a65e84059005d12693a083370a06717]
entity client--><g id="elem_client"><rect fill="#F1F1F1" height="46.4883" rx="2.5" ry="2.5" style="stroke:#181818;stroke-width:0.5;" width="151" x="83.5" y="44.4883"/><rect fill="#F1F1F1" height="10" style="stroke:#181818;stroke-width:0.5;" width="15" x="214.5" y="49.4883"/><rect fill="#F1F1F1" height="2" style="stroke:#181818;stroke-width:0.5;" width="4" x="212.5" y="51.4883"/><rect fill="#F1F1F1" height="2" style="stroke:#181818;stroke-width:0.5;" width="4" x="212.5" y="55.4883"/><text fill="#000000" font-family="sans-serif" font-size="14" lengthAdjust="spacing" textLength="111" x="98.5" y="78.0234">Client - Browser</text></g><!--MD5=[d112aecbd7ccc75573a6ee2503a173b3]
entity email--><g id="elem_email"><rect fill="#F1F1F1" height="46.4883" rx="2.5" ry="2.5" style="stroke:#181818;stroke-width:0.5;" width="187" x="1206.5" y="801.4883"/><rect fill="#F1F1F1" height="10" style="stroke:#181818;stroke-width:0.5;" width="15" x="1373.5" y="806.4883"/><rect fill="#F1F1F1" height="2" style="stroke:#181818;stroke-width:0.5;" width="4" x="1371.5" y="808.4883"/><rect fill="#F1F1F1" height="2" style="stroke:#181818;stroke-width:0.5;" width="4" x="1371.5" y="812.4883"/><text fill="#000000" font-family="sans-serif" font-size="14" lengthAdjust="spacing" textLength="147" x="1221.5" y="835.0234">Email-Dienst (extern)</text></g><!--MD5=[352ef287b9f0ec53b7305306ae20b7fa]
entity doc--><g id="elem_doc"><rect fill="#F1F1F1" height="46.4883" rx="2.5" ry="2.5" style="stroke:#181818;stroke-width:0.5;" width="207" x="143.5" y="163.4883"/><rect fill="#F1F1F1" height="10" style="stroke:#181818;stroke-width:0.5;" width="15" x="330.5" y="168.4883"/><rect fill="#F1F1F1" height="2" style="stroke:#181818;stroke-width:0.5;" width="4" x="328.5" y="170.4883"/><rect fill="#F1F1F1" height="2" style="stroke:#181818;stroke-width:0.5;" width="4" x="328.5" y="174.4883"/><text fill="#000000" font-family="sans-serif" font-size="14" lengthAdjust="spacing" textLength="167" x="158.5" y="197.0234">mkdocs-Dokumentation</text></g><!--MD5=[66901797028cdf4a5af818c3b97f13d8]
link http_webserver to front_webserver--><g id="link_http_webserver_front_webserver"><path d="M71,195.4383 C71,215.8483 71,272.1383 71,324.0445 C71,330.5328 71,336.9526 71,343.2252 C71,346.3616 71,349.4611 71,352.514 C71,354.0405 71,355.5553 71,357.0572 C71,357.8082 71,358.5559 71,359.3003 C71,359.6725 71,360.0438 71,360.4143 " fill="none" id="http_webserver-front_webserver" style="stroke:#181818;stroke-width:1.0;"/></g><!--MD5=[aba602e1ea189c49b6c82a447f07944a]
link http2 to feedback_webserver--><g id="link_http2_feedback_webserver"><path d="M898.28,659.4883 C903.93,659.4883 909.58,659.4883 915.2313,659.4883 C918.0569,659.4883 920.8828,659.4883 923.7092,659.4883 C924.0625,659.4883 924.4158,659.4883 924.7691,659.4883 C924.8133,659.4883 924.8575,659.4883 924.9016,659.4883 " fill="none" id="http2-feedback_webserver" style="stroke:#181818;stroke-width:1.0;"/></g><!--MD5=[980bb58ad9ede7c5cace7f7cde2794c8]
link http_api_int to api_server--><g id="link_http_api_int_api_server"><path d="M549.28,659.4883 C554.93,659.4883 560.58,659.4883 566.2313,659.4883 C567.6441,659.4883 569.057,659.4883 570.4699,659.4883 C571.1764,659.4883 571.883,659.4883 572.5895,659.4883 C572.6778,659.4883 572.7661,659.4883 572.8545,659.4883 C572.8986,659.4883 572.9428,659.4883 572.9869,659.4883 " fill="none" id="http_api_int-api_server" style="stroke:#181818;stroke-width:1.0;"/></g><!--MD5=[1b9dbcfdb69d97b7ce5f2d963fc4ed75]
link api to db--><g id="link_api_db"><path d="M675,682.8083 C675,711.9883 675,763.1383 675,795.0583 " fill="none" id="api-to-db" style="stroke:#181818;stroke-width:1.0;stroke-dasharray:7.0,7.0;"/><polygon fill="#181818" points="675,799.6583,679,790.6583,675,794.6583,671,790.6583,675,799.6583" style="stroke:#181818;stroke-width:1.0;"/><text fill="#000000" font-family="sans-serif" font-size="13" lengthAdjust="spacing" textLength="49" x="676" y="768.0566">fragt ab</text></g><!--MD5=[805c0f30b3225ff0ef351e5cf6cc7992]
link client to http_webserver--><g id="link_client_http_webserver"><path d="M142.24,90.7683 C124.01,115.0083 95.49,152.9283 80.67,172.6383 " fill="none" id="client-to-http_webserver" style="stroke:#181818;stroke-width:1.0;stroke-dasharray:7.0,7.0;"/><polygon fill="#181818" points="77.78,176.4683,86.38,171.6683,80.78,172.4683,79.98,166.8683,77.78,176.4683" style="stroke:#181818;stroke-width:1.0;"/></g><!--MD5=[71dd533888987f0a118504f3d637bb63]
link proxy to http2--><g id="link_proxy_http2"><path d="M410.8,428.8683 C492.45,431.8683 638.49,446.0083 746,505.4883 C809.79,540.7883 861.38,614.6583 880.75,645.0183 " fill="none" id="proxy-to-http2" style="stroke:#181818;stroke-width:1.0;stroke-dasharray:7.0,7.0;"/><polygon fill="#181818" points="883.18,648.8783,881.7784,639.1297,880.5197,644.6447,875.0047,643.3861,883.18,648.8783" style="stroke:#181818;stroke-width:1.0;"/></g><!--MD5=[89302d7785bf54ea18dc6d2debf99aec]
link proxy to http_api_int--><g id="link_proxy_http_api_int"><path d="M373.53,450.8183 C389.41,465.7183 410.18,486.0783 427,505.4883 C469.19,554.1783 512.71,617.5283 531.03,644.9083 " fill="none" id="proxy-to-http_api_int" style="stroke:#181818;stroke-width:1.0;stroke-dasharray:7.0,7.0;"/><polygon fill="#181818" points="533.7,648.9283,532.0513,639.2184,530.9331,644.7636,525.3878,643.6455,533.7,648.9283" style="stroke:#181818;stroke-width:1.0;"/></g><!--MD5=[b9294a1a2a5d8ea12e9e24571a9c9962]
link client to doc--><g id="link_client_doc"><path d="M175.76,90.7683 C190.19,109.9583 211.08,137.7283 226.51,158.2383 " fill="none" id="client-to-doc" style="stroke:#181818;stroke-width:1.0;stroke-dasharray:7.0,7.0;"/><polygon fill="#181818" points="229.39,162.0783,227.1681,152.4833,226.3809,158.0851,220.7791,157.2979,229.39,162.0783" style="stroke:#181818;stroke-width:1.0;"/></g><!--MD5=[87837a56bb10c021e459f8b68c62450d]
link form_backend to email--><g id="link_form_backend_email"><path d="M1075.02,682.9783 C1123.19,713.0683 1208.37,766.2583 1258.96,797.8583 " fill="none" id="form_backend-to-email" style="stroke:#181818;stroke-width:1.0;stroke-dasharray:7.0,7.0;"/><polygon fill="#181818" points="1263.07,800.4283,1257.5654,792.2613,1258.8324,797.7744,1253.3193,799.0414,1263.07,800.4283" style="stroke:#181818;stroke-width:1.0;"/><text fill="#000000" font-family="sans-serif" font-size="13" lengthAdjust="spacing" textLength="42" x="1216" y="768.0566">sendet</text></g><!--MD5=[b8ce1100f9ee281aaba5ddc98844d43a]
reverse link static_site to site_builder--><g id="link_static_site_site_builder"><path d="M179,457.2183 C179,503.6783 179,594.3483 179,636.2683 " fill="none" id="static_site-backto-site_builder" style="stroke:#181818;stroke-width:1.0;stroke-dasharray:7.0,7.0;"/><polygon fill="#181818" points="179,452.4783,175,461.4783,179,457.4783,183,461.4783,179,452.4783" style="stroke:#181818;stroke-width:1.0;"/><text fill="#000000" font-family="sans-serif" font-size="13" lengthAdjust="spacing" textLength="37" x="180" y="494.0566">liefert</text></g><!--MD5=[a41429e3c10c91568a7614f27017ba24]
@startuml
title Microservice - Komponenten

() "HTTP:80" as http_webserver
() "HTTP:80" as http_api

[Client - Browser] as client
rectangle "Docker-Dienste" {
	rectangle #ccffee {
		node "API-Service" as api_service {
			() "HTTP:3000" as http_api_int
			package "Web-Server mit App-Logik" as api_server {
				[Demo-API] as api
			}
			[Datenbank - sqlite in-memory] as db
		}

	}

	node "Feedback-Dienst" as feedback {
		() "HTTP:3000" as http2
		package "Webserver" as feedback_webserver {
			[Form-backend] as form_backend
		}

	}
	node "Frontend-Service" as frontend {
		package "Webserver" as front_webserver {
			[statische Seiten] as static_site
			[Site-Builder] as site_builder
			[HTTP-Proxy] as proxy
		}

	}
}


[Email-Dienst (extern)] as email
[mkdocs-Dokumentation] as doc

http_webserver - - front_webserver
http2 - feedback_webserver
http_api_int - api_server

api ..> db: fragt ab

client ..> http_webserver
proxy ..> http2
proxy ..> http_api_int
client ..> doc
form_backend ..> email: sendet
site_builder .up.> static_site: liefert
@enduml

PlantUML version 1.2022.12(Sun Oct 23 20:12:26 CEST 2022)
(GPL source distribution)
Java Runtime: OpenJDK Runtime Environment
JVM: OpenJDK 64-Bit Server VM
Default Encoding: UTF-8
Language: de
Country: CH
--></g></svg>