<?xml version="1.0" encoding="UTF-8" standalone="no"?><svg xmlns="http://www.w3.org/2000/svg" xmlns:xlink="http://www.w3.org/1999/xlink" contentStyleType="text/css" height="1070px" preserveAspectRatio="none" style="width:1624px;height:1070px;background:#FFFFFF;" version="1.1" viewBox="0 0 1624 1070" width="1624px" zoomAndPan="magnify"><defs/><g><rect fill="none" height="26.4883" id="_title" style="stroke:none;stroke-width:1.0;" width="219" x="695.75" y="5"/><text fill="#000000" font-family="sans-serif" font-size="14" font-weight="bold" lengthAdjust="spacing" textLength="209" x="700.75" y="23.5352">Microservice - Komponenten</text><!--MD5=[1adef828005f1e1211a601d8a9920c88]
cluster Docker-Dienste--><g id="cluster_Docker-Dienste"><rect fill="none" height="808" rx="2.5" ry="2.5" style="stroke:#181818;stroke-width:1.0;" width="1408" x="7" y="256.4883"/><text fill="#000000" font-family="sans-serif" font-size="14" font-weight="bold" lengthAdjust="spacing" textLength="114" x="654" y="272.0234">Docker-Dienste</text></g><g id="cluster_##5"><rect fill="#CCFFEE" height="533" rx="2.5" ry="2.5" style="stroke:#181818;stroke-width:1.0;" width="603" x="491" y="507.4883"/></g><!--MD5=[40c74b2db32dfb02a7ff35a3bff0fe87]
cluster api_service--><g id="cluster_api_service"><polygon fill="none" points="515,541.4883,525,531.4883,790,531.4883,790,855.4883,780,865.4883,515,865.4883,515,541.4883" style="stroke:#181818;stroke-width:1.0;"/><line style="stroke:#181818;stroke-width:1.0;" x1="780" x2="790" y1="541.4883" y2="531.4883"/><line style="stroke:#181818;stroke-width:1.0;" x1="515" x2="780" y1="541.4883" y2="541.4883"/><line style="stroke:#181818;stroke-width:1.0;" x1="780" x2="780" y1="541.4883" y2="865.4883"/><text fill="#000000" font-family="sans-serif" font-size="14" font-weight="bold" lengthAdjust="spacing" textLength="83" x="607" y="558.0234">API-Service</text></g><!--MD5=[a211b6b4578c7637cec3453f71318e72]
cluster api_server--><g id="cluster_api_server"><path d="M549.5,720.4883 L745.5,720.4883 A3.75,3.75 0 0 1 748,722.9883 L755,742.9766 L755.5,742.9766 A2.5,2.5 0 0 1 758,745.4766 L758,830.9883 A2.5,2.5 0 0 1 755.5,833.4883 L549.5,833.4883 A2.5,2.5 0 0 1 547,830.9883 L547,722.9883 A2.5,2.5 0 0 1 549.5,720.4883 " fill="none" style="stroke:#000000;stroke-width:1.5;"/><line style="stroke:#000000;stroke-width:1.5;" x1="547" x2="755" y1="742.9766" y2="742.9766"/><text fill="#000000" font-family="sans-serif" font-size="14" font-weight="bold" lengthAdjust="spacing" textLength="195" x="551" y="736.0234">Web-Server mit App-Logik</text></g><!--MD5=[4d6b3837149d0a73f1219e1733b6b9d7]
cluster db_service--><g id="cluster_db_service"><polygon fill="none" points="680,924.4883,690,914.4883,898,914.4883,898,1006.4883,888,1016.4883,680,1016.4883,680,924.4883" style="stroke:#181818;stroke-width:1.0;"/><line style="stroke:#181818;stroke-width:1.0;" x1="888" x2="898" y1="924.4883" y2="914.4883"/><line style="stroke:#181818;stroke-width:1.0;" x1="680" x2="888" y1="924.4883" y2="924.4883"/><line style="stroke:#181818;stroke-width:1.0;" x1="888" x2="888" y1="924.4883" y2="1016.4883"/><text fill="#000000" font-family="sans-serif" font-size="14" font-weight="bold" lengthAdjust="spacing" textLength="142" x="714" y="941.0234">PostgreSQL-Service</text></g><!--MD5=[26af92788e48d1f7f00e8cf0f07908ed]
cluster pg_management--><g id="cluster_pg_management"><polygon fill="none" points="814,541.4883,824,531.4883,1070,531.4883,1070,815.4883,1060,825.4883,814,825.4883,814,541.4883" style="stroke:#181818;stroke-width:1.0;"/><line style="stroke:#181818;stroke-width:1.0;" x1="1060" x2="1070" y1="541.4883" y2="531.4883"/><line style="stroke:#181818;stroke-width:1.0;" x1="814" x2="1060" y1="541.4883" y2="541.4883"/><line style="stroke:#181818;stroke-width:1.0;" x1="1060" x2="1060" y1="541.4883" y2="825.4883"/><text fill="#000000" font-family="sans-serif" font-size="14" font-weight="bold" lengthAdjust="spacing" textLength="174" x="851" y="558.0234">PostgreSQL-Verwaltung</text></g><!--MD5=[0baca7324fcec12e9ff71112e7d863b3]
cluster feedback--><g id="cluster_feedback"><polygon fill="none" points="1118,541.4883,1128,531.4883,1391,531.4883,1391,855.4883,1381,865.4883,1118,865.4883,1118,541.4883" style="stroke:#181818;stroke-width:1.0;"/><line style="stroke:#181818;stroke-width:1.0;" x1="1381" x2="1391" y1="541.4883" y2="531.4883"/><line style="stroke:#181818;stroke-width:1.0;" x1="1118" x2="1381" y1="541.4883" y2="541.4883"/><line style="stroke:#181818;stroke-width:1.0;" x1="1381" x2="1381" y1="541.4883" y2="865.4883"/><text fill="#000000" font-family="sans-serif" font-size="14" font-weight="bold" lengthAdjust="spacing" textLength="122" x="1189.5" y="558.0234">Feedback-Dienst</text></g><!--MD5=[52d0a895dd9a500d37619d8281e4f769]
cluster feedback_webserver--><g id="cluster_feedback_webserver"><path d="M1152.5,720.4883 L1227.5,720.4883 A3.75,3.75 0 0 1 1230,722.9883 L1237,742.9766 L1356.5,742.9766 A2.5,2.5 0 0 1 1359,745.4766 L1359,830.9883 A2.5,2.5 0 0 1 1356.5,833.4883 L1152.5,833.4883 A2.5,2.5 0 0 1 1150,830.9883 L1150,722.9883 A2.5,2.5 0 0 1 1152.5,720.4883 " fill="none" style="stroke:#000000;stroke-width:1.5;"/><line style="stroke:#000000;stroke-width:1.5;" x1="1150" x2="1237" y1="742.9766" y2="742.9766"/><text fill="#000000" font-family="sans-serif" font-size="14" font-weight="bold" lengthAdjust="spacing" textLength="74" x="1154" y="736.0234">Webserver</text></g><!--MD5=[23cbaadc18b1780d966e07254adaec4d]
cluster frontend--><g id="cluster_frontend"><polygon fill="none" points="31,309.4883,41,299.4883,467,299.4883,467,669.4883,457,679.4883,31,679.4883,31,309.4883" style="stroke:#181818;stroke-width:1.0;"/><line style="stroke:#181818;stroke-width:1.0;" x1="457" x2="467" y1="309.4883" y2="299.4883"/><line style="stroke:#181818;stroke-width:1.0;" x1="31" x2="457" y1="309.4883" y2="309.4883"/><line style="stroke:#181818;stroke-width:1.0;" x1="457" x2="457" y1="309.4883" y2="679.4883"/><text fill="#000000" font-family="sans-serif" font-size="14" font-weight="bold" lengthAdjust="spacing" textLength="123" x="183.5" y="326.0234">Frontend-Service</text></g><!--MD5=[e43b1d5ace51cf10c1ef33b793cbd9b3]
cluster front_webserver--><g id="cluster_front_webserver"><path d="M65.5,355.4883 L140.5,355.4883 A3.75,3.75 0 0 1 143,357.9883 L150,377.9766 L432.5,377.9766 A2.5,2.5 0 0 1 435,380.4766 L435,644.9883 A2.5,2.5 0 0 1 432.5,647.4883 L65.5,647.4883 A2.5,2.5 0 0 1 63,644.9883 L63,357.9883 A2.5,2.5 0 0 1 65.5,355.4883 " fill="none" style="stroke:#000000;stroke-width:1.5;"/><line style="stroke:#000000;stroke-width:1.5;" x1="63" x2="150" y1="377.9766" y2="377.9766"/><text fill="#000000" font-family="sans-serif" font-size="14" font-weight="bold" lengthAdjust="spacing" textLength="74" x="67" y="371.0234">Webserver</text></g><!--MD5=[6af16942df121cc661ecdb5014b53054]
entity http_api--><g id="elem_http_api"><ellipse cx="577" cy="600.4883" fill="#F1F1F1" rx="8" ry="8" style="stroke:#181818;stroke-width:0.5;"/><text fill="#000000" font-family="sans-serif" font-size="14" lengthAdjust="spacing" textLength="76" x="539" y="631.0234">HTTP:3000</text></g><!--MD5=[e2307af040e3f87d22824e7603ca28ec]
entity api--><g id="elem_api"><rect fill="#F1F1F1" height="46.4883" rx="2.5" ry="2.5" style="stroke:#181818;stroke-width:0.5;" width="110" x="624" y="763.4883"/><rect fill="#F1F1F1" height="10" style="stroke:#181818;stroke-width:0.5;" width="15" x="714" y="768.4883"/><rect fill="#F1F1F1" height="2" style="stroke:#181818;stroke-width:0.5;" width="4" x="712" y="770.4883"/><rect fill="#F1F1F1" height="2" style="stroke:#181818;stroke-width:0.5;" width="4" x="712" y="774.4883"/><text fill="#000000" font-family="sans-serif" font-size="14" lengthAdjust="spacing" textLength="70" x="639" y="797.0234">Demo-API</text></g><!--MD5=[c25496a603df2e3bdaa26bc09847b3cb]
entity db_server--><g id="elem_db_server"><rect fill="#F1F1F1" height="46.4883" rx="2.5" ry="2.5" style="stroke:#181818;stroke-width:0.5;" width="163" x="707.5" y="954.4883"/><rect fill="#F1F1F1" height="10" style="stroke:#181818;stroke-width:0.5;" width="15" x="850.5" y="959.4883"/><rect fill="#F1F1F1" height="2" style="stroke:#181818;stroke-width:0.5;" width="4" x="848.5" y="961.4883"/><rect fill="#F1F1F1" height="2" style="stroke:#181818;stroke-width:0.5;" width="4" x="848.5" y="965.4883"/><text fill="#000000" font-family="sans-serif" font-size="14" lengthAdjust="spacing" textLength="123" x="722.5" y="988.0234">Postgresql-Server</text></g><!--MD5=[76b9aae3a6c4abc2c46d6209edc56401]
entity http_pgadmin--><g id="elem_http_pgadmin"><ellipse cx="909" cy="600.4883" fill="#F1F1F1" rx="8" ry="8" style="stroke:#181818;stroke-width:0.5;"/><text fill="#000000" font-family="sans-serif" font-size="14" lengthAdjust="spacing" textLength="76" x="871" y="631.0234">HTTP:9999</text></g><!--MD5=[c6a20e11cc027badf06fe6c5c3aadf89]
entity pgAdmin--><g id="elem_pgAdmin"><rect fill="#F1F1F1" height="46.4883" rx="2.5" ry="2.5" style="stroke:#181818;stroke-width:0.5;" width="223" x="830.5" y="763.4883"/><rect fill="#F1F1F1" height="10" style="stroke:#181818;stroke-width:0.5;" width="15" x="1033.5" y="768.4883"/><rect fill="#F1F1F1" height="2" style="stroke:#181818;stroke-width:0.5;" width="4" x="1031.5" y="770.4883"/><rect fill="#F1F1F1" height="2" style="stroke:#181818;stroke-width:0.5;" width="4" x="1031.5" y="774.4883"/><text fill="#000000" font-family="sans-serif" font-size="14" lengthAdjust="spacing" textLength="183" x="845.5" y="797.0234">pgAdmin-Verwaltungstool</text></g><!--MD5=[21e97b73a141fb924fc1ccac418b209c]
entity http2--><g id="elem_http2"><ellipse cx="1180" cy="600.4883" fill="#F1F1F1" rx="8" ry="8" style="stroke:#181818;stroke-width:0.5;"/><text fill="#000000" font-family="sans-serif" font-size="14" lengthAdjust="spacing" textLength="76" x="1142" y="631.0234">HTTP:3000</text></g><!--MD5=[09551326e6ce6f7108f17cf1661a8512]
entity form_backend--><g id="elem_form_backend"><rect fill="#F1F1F1" height="46.4883" rx="2.5" ry="2.5" style="stroke:#181818;stroke-width:0.5;" width="142" x="1193" y="763.4883"/><rect fill="#F1F1F1" height="10" style="stroke:#181818;stroke-width:0.5;" width="15" x="1315" y="768.4883"/><rect fill="#F1F1F1" height="2" style="stroke:#181818;stroke-width:0.5;" width="4" x="1313" y="770.4883"/><rect fill="#F1F1F1" height="2" style="stroke:#181818;stroke-width:0.5;" width="4" x="1313" y="774.4883"/><text fill="#000000" font-family="sans-serif" font-size="14" lengthAdjust="spacing" textLength="102" x="1208" y="797.0234">Form-backend</text></g><!--MD5=[de85803019e1fbc688521ea789918df2]
entity static_site--><g id="elem_static_site"><rect fill="#F1F1F1" height="46.4883" rx="2.5" ry="2.5" style="stroke:#181818;stroke-width:0.5;" width="146" x="106" y="398.4883"/><rect fill="#F1F1F1" height="10" style="stroke:#181818;stroke-width:0.5;" width="15" x="232" y="403.4883"/><rect fill="#F1F1F1" height="2" style="stroke:#181818;stroke-width:0.5;" width="4" x="230" y="405.4883"/><rect fill="#F1F1F1" height="2" style="stroke:#181818;stroke-width:0.5;" width="4" x="230" y="409.4883"/><text fill="#000000" font-family="sans-serif" font-size="14" lengthAdjust="spacing" textLength="106" x="121" y="432.0234">statische Seiten</text></g><!--MD5=[82b6d6c070392a2ef6fb7735d17b3b37]
entity site_builder--><g id="elem_site_builder"><rect fill="#F1F1F1" height="46.4883" rx="2.5" ry="2.5" style="stroke:#181818;stroke-width:0.5;" width="121" x="118.5" y="577.4883"/><rect fill="#F1F1F1" height="10" style="stroke:#181818;stroke-width:0.5;" width="15" x="219.5" y="582.4883"/><rect fill="#F1F1F1" height="2" style="stroke:#181818;stroke-width:0.5;" width="4" x="217.5" y="584.4883"/><rect fill="#F1F1F1" height="2" style="stroke:#181818;stroke-width:0.5;" width="4" x="217.5" y="588.4883"/><text fill="#000000" font-family="sans-serif" font-size="14" lengthAdjust="spacing" textLength="81" x="133.5" y="611.0234">Site-Builder</text></g><!--MD5=[e937783d151d78c9e87fd4c0d99f7485]
entity proxy--><g id="elem_proxy"><rect fill="#F1F1F1" height="46.4883" rx="2.5" ry="2.5" style="stroke:#181818;stroke-width:0.5;" width="123" x="287.5" y="398.4883"/><rect fill="#F1F1F1" height="10" style="stroke:#181818;stroke-width:0.5;" width="15" x="390.5" y="403.4883"/><rect fill="#F1F1F1" height="2" style="stroke:#181818;stroke-width:0.5;" width="4" x="388.5" y="405.4883"/><rect fill="#F1F1F1" height="2" style="stroke:#181818;stroke-width:0.5;" width="4" x="388.5" y="409.4883"/><text fill="#000000" font-family="sans-serif" font-size="14" lengthAdjust="spacing" textLength="83" x="302.5" y="432.0234">HTTP-Proxy</text></g><!--MD5=[3623719a8867d1425865214cf26ec666]
entity http_webserver--><g id="elem_http_webserver"><ellipse cx="249" cy="180.4883" fill="#F1F1F1" rx="8" ry="8" style="stroke:#181818;stroke-width:0.5;"/><text fill="#000000" font-family="sans-serif" font-size="14" lengthAdjust="spacing" textLength="58" x="220" y="211.0234">HTTP:80</text></g><!--MD5=[4a65e84059005d12693a083370a06717]
entity client--><g id="elem_client"><rect fill="#F1F1F1" height="46.4883" rx="2.5" ry="2.5" style="stroke:#181818;stroke-width:0.5;" width="151" x="420.5" y="44.4883"/><rect fill="#F1F1F1" height="10" style="stroke:#181818;stroke-width:0.5;" width="15" x="551.5" y="49.4883"/><rect fill="#F1F1F1" height="2" style="stroke:#181818;stroke-width:0.5;" width="4" x="549.5" y="51.4883"/><rect fill="#F1F1F1" height="2" style="stroke:#181818;stroke-width:0.5;" width="4" x="549.5" y="55.4883"/><text fill="#000000" font-family="sans-serif" font-size="14" lengthAdjust="spacing" textLength="111" x="435.5" y="78.0234">Client - Browser</text></g><!--MD5=[d112aecbd7ccc75573a6ee2503a173b3]
entity email--><g id="elem_email"><rect fill="#F1F1F1" height="46.4883" rx="2.5" ry="2.5" style="stroke:#181818;stroke-width:0.5;" width="187" x="1431.5" y="954.4883"/><rect fill="#F1F1F1" height="10" style="stroke:#181818;stroke-width:0.5;" width="15" x="1598.5" y="959.4883"/><rect fill="#F1F1F1" height="2" style="stroke:#181818;stroke-width:0.5;" width="4" x="1596.5" y="961.4883"/><rect fill="#F1F1F1" height="2" style="stroke:#181818;stroke-width:0.5;" width="4" x="1596.5" y="965.4883"/><text fill="#000000" font-family="sans-serif" font-size="14" lengthAdjust="spacing" textLength="147" x="1446.5" y="988.0234">Email-Dienst (extern)</text></g><!--MD5=[352ef287b9f0ec53b7305306ae20b7fa]
entity doc--><g id="elem_doc"><rect fill="#F1F1F1" height="46.4883" rx="2.5" ry="2.5" style="stroke:#181818;stroke-width:0.5;" width="207" x="392.5" y="157.4883"/><rect fill="#F1F1F1" height="10" style="stroke:#181818;stroke-width:0.5;" width="15" x="579.5" y="162.4883"/><rect fill="#F1F1F1" height="2" style="stroke:#181818;stroke-width:0.5;" width="4" x="577.5" y="164.4883"/><rect fill="#F1F1F1" height="2" style="stroke:#181818;stroke-width:0.5;" width="4" x="577.5" y="168.4883"/><text fill="#000000" font-family="sans-serif" font-size="14" lengthAdjust="spacing" textLength="167" x="407.5" y="191.0234">mkdocs-Dokumentation</text></g><!--MD5=[66901797028cdf4a5af818c3b97f13d8]
link http_webserver to front_webserver--><g id="link_http_webserver_front_webserver"><path d="M240.28,182.1983 C212.89,184.9283 128.15,197.3483 90,248.4883 C78.6825,263.6583 71.7844,281.7783 67.8159,300.4777 C65.8317,309.8273 64.5799,319.3219 63.8743,328.6649 C63.5215,333.3364 63.3053,337.9701 63.2023,342.5288 C63.1509,344.8082 63.1277,347.0689 63.1299,349.3061 C63.1311,350.4248 63.1385,351.5376 63.152,352.644 C63.1587,353.1972 63.167,353.7487 63.1766,354.2987 C63.1815,354.5736 63.1867,354.8481 63.1923,355.1223 " fill="none" id="http_webserver-front_webserver" style="stroke:#181818;stroke-width:1.0;"/></g><!--MD5=[aba602e1ea189c49b6c82a447f07944a]
link http2 to feedback_webserver--><g id="link_http2_feedback_webserver"><path d="M1179.05,609.3983 C1176.98,626.7283 1171.8475,669.6558 1167.1688,708.7858 C1166.8763,711.2314 1166.5857,713.6622 1166.2977,716.071 C1166.1537,717.2754 1166.0103,718.4743 1165.8677,719.6667 " fill="none" id="http2-feedback_webserver" style="stroke:#181818;stroke-width:1.0;"/></g><!--MD5=[fe46a10b26c6a3234fcabb6225464440]
link http_api to api_server--><g id="link_http_api_api_server"><path d="M577,609.3983 C577,626.7283 577,669.6558 577,708.7858 C577,711.2314 577,713.6622 577,716.071 C577,717.2754 577,718.4743 577,719.6667 " fill="none" id="http_api-api_server" style="stroke:#181818;stroke-width:1.0;"/></g><!--MD5=[abdfc4330191eae67b28efc7a851bdcc]
link client to http_pgadmin--><g id="link_client_http_pgadmin"><path d="M536.84,90.9383 C561.83,105.9583 593.42,127.3383 617,151.4883 C761.27,299.1983 875.25,528.3783 902.68,585.9883 " fill="none" id="client-to-http_pgadmin" style="stroke:#181818;stroke-width:1.0;stroke-dasharray:7.0,7.0;"/><polygon fill="#181818" points="904.69,590.2283,904.4441,580.3825,902.5459,585.7113,897.217,583.8131,904.69,590.2283" style="stroke:#181818;stroke-width:1.0;"/></g><!--MD5=[4d85b6d0a60d69629b83674c458e8df9]
link http_pgadmin to pgAdmin--><g id="link_http_pgadmin_pgAdmin"><path d="M910.42,609.3983 C915.17,635.8783 930.63,722.0983 938.01,763.2483 " fill="none" id="http_pgadmin-pgAdmin" style="stroke:#181818;stroke-width:1.0;"/></g><!--MD5=[dce409015eed7649bdf114edc2d76dcb]
link pgAdmin to db_server--><g id="link_pgAdmin_db_server"><path d="M929.85,809.8283 C916.75,833.0483 894.58,869.8983 871,898.4883 C855.82,916.8983 836.59,935.3883 820.57,949.7483 " fill="none" id="pgAdmin-to-db_server" style="stroke:#181818;stroke-width:1.0;stroke-dasharray:7.0,7.0;"/><polygon fill="#181818" points="816.84,953.0583,826.2234,950.0664,820.5763,949.7356,820.9071,944.0884,816.84,953.0583" style="stroke:#181818;stroke-width:1.0;"/><text fill="#000000" font-family="sans-serif" font-size="13" lengthAdjust="spacing" textLength="154" x="883" y="895.0566">fragt ab (TCP-Port 5432)</text></g><!--MD5=[805c0f30b3225ff0ef351e5cf6cc7992]
link client to http_webserver--><g id="link_client_http_webserver"><path d="M446.02,90.9483 C388.95,116.5983 298.97,157.0383 263.79,172.8383 " fill="none" id="client-to-http_webserver" style="stroke:#181818;stroke-width:1.0;stroke-dasharray:7.0,7.0;"/><polygon fill="#181818" points="259.26,174.8783,269.1088,174.8327,263.8196,172.8265,265.8258,167.5373,259.26,174.8783" style="stroke:#181818;stroke-width:1.0;"/></g><!--MD5=[71dd533888987f0a118504f3d637bb63]
link proxy to http2--><g id="link_proxy_http2"><path d="M410.82,424.1883 C563.14,429.1583 952.65,446.7883 1070,499.4883 C1114.49,519.4683 1153.24,564.4483 1170.48,586.6283 " fill="none" id="proxy-to-http2" style="stroke:#181818;stroke-width:1.0;stroke-dasharray:7.0,7.0;"/><polygon fill="#181818" points="1173.47,590.5383,1171.2098,580.9523,1170.4449,586.5572,1164.84,585.7924,1173.47,590.5383" style="stroke:#181818;stroke-width:1.0;"/></g><!--MD5=[25c49ec6fde64c295cb4e82e9a2e2f78]
link proxy to http_api--><g id="link_proxy_http_api"><path d="M377.88,444.9083 C427.44,483.3883 526.89,560.5883 563.27,588.8283 " fill="none" id="proxy-to-http_api" style="stroke:#181818;stroke-width:1.0;stroke-dasharray:7.0,7.0;"/><polygon fill="#181818" points="566.97,591.6983,562.2933,583.0306,563.0133,588.6415,557.4024,589.3614,566.97,591.6983" style="stroke:#181818;stroke-width:1.0;"/></g><!--MD5=[b9294a1a2a5d8ea12e9e24571a9c9962]
link client to doc--><g id="link_client_doc"><path d="M496,90.9483 C496,108.2483 496,132.2883 496,150.9583 " fill="none" id="client-to-doc" style="stroke:#181818;stroke-width:1.0;stroke-dasharray:7.0,7.0;"/><polygon fill="#181818" points="496,155.5483,500,146.5483,496,150.5483,492,146.5483,496,155.5483" style="stroke:#181818;stroke-width:1.0;"/></g><!--MD5=[12e8a8787035dfa5b48aeef4fbffb56d]
link api to db_server--><g id="link_api_db_server"><path d="M682.02,809.6483 C685.96,833.0283 694.39,870.3283 711,898.4883 C722.55,918.0683 740.17,936.2683 755.73,950.1483 " fill="none" id="api-to-db_server" style="stroke:#181818;stroke-width:1.0;stroke-dasharray:7.0,7.0;"/><polygon fill="#181818" points="759.35,953.3183,755.2084,944.3825,755.5862,950.0268,749.942,950.4046,759.35,953.3183" style="stroke:#181818;stroke-width:1.0;"/><text fill="#000000" font-family="sans-serif" font-size="13" lengthAdjust="spacing" textLength="154" x="712" y="895.0566">fragt ab (TCP-Port 5432)</text></g><!--MD5=[87837a56bb10c021e459f8b68c62450d]
link form_backend to email--><g id="link_form_backend_email"><path d="M1294.97,809.9083 C1343.53,845.0783 1437.37,913.0283 1488.92,950.3583 " fill="none" id="form_backend-to-email" style="stroke:#181818;stroke-width:1.0;stroke-dasharray:7.0,7.0;"/><polygon fill="#181818" points="1492.85,953.2083,1487.9276,944.6777,1488.8076,950.2657,1483.2196,951.1456,1492.85,953.2083" style="stroke:#181818;stroke-width:1.0;"/><text fill="#000000" font-family="sans-serif" font-size="13" lengthAdjust="spacing" textLength="42" x="1411" y="895.0566">sendet</text></g><!--MD5=[b8ce1100f9ee281aaba5ddc98844d43a]
reverse link static_site to site_builder--><g id="link_static_site_site_builder"><path d="M179,451.1883 C179,486.3883 179,545.3083 179,577.2483 " fill="none" id="static_site-backto-site_builder" style="stroke:#181818;stroke-width:1.0;stroke-dasharray:7.0,7.0;"/><polygon fill="#181818" points="179,446.4183,175,455.4183,179,451.4183,183,455.4183,179,446.4183" style="stroke:#181818;stroke-width:1.0;"/><text fill="#000000" font-family="sans-serif" font-size="13" lengthAdjust="spacing" textLength="37" x="180" y="488.0566">liefert</text></g><!--MD5=[643f5c217feb440c24e79a1866e68361]
@startuml
title Microservice - Komponenten

() "HTTP:80" as http_webserver

[Client - Browser] as client
rectangle "Docker-Dienste" {
	rectangle #ccffee {
		node "API-Service" as api_service {
			() "HTTP:3000" as http_api
			package "Web-Server mit App-Logik" as api_server {
				[Demo-API] as api
			}
		}

		node "PostgreSQL-Service" as db_service {
			[Postgresql-Server] as db_server
		}

		node "PostgreSQL-Verwaltung" as pg_management {
			() "HTTP:9999" as http_pgadmin
			[pgAdmin-Verwaltungstool] as pgAdmin
		}
	}

	node "Feedback-Dienst" as feedback {
		() "HTTP:3000" as http2
		package "Webserver" as feedback_webserver {
			[Form-backend] as form_backend
		}

	}
	node "Frontend-Service" as frontend {
		package "Webserver" as front_webserver {
			[statische Seiten] as static_site
			[Site-Builder] as site_builder
			[HTTP-Proxy] as proxy
		}

	}
}


[Email-Dienst (extern)] as email
[mkdocs-Dokumentation] as doc

http_webserver - - front_webserver
http2 - - feedback_webserver
http_api - - api_server

client ..> http_pgadmin
http_pgadmin - - pgAdmin
pgAdmin ..> db_server: fragt ab (TCP-Port 5432)

client ..> http_webserver
proxy ..> http2
proxy ..> http_api

client ..> doc
api ..> db_server: fragt ab (TCP-Port 5432)
form_backend ..> email: sendet
site_builder .up.> static_site: liefert
@enduml

PlantUML version 1.2022.12(Sun Oct 23 20:12:26 CEST 2022)
(GPL source distribution)
Java Runtime: OpenJDK Runtime Environment
JVM: OpenJDK 64-Bit Server VM
Default Encoding: UTF-8
Language: de
Country: CH
--></g></svg>