<?xml version="1.0" encoding="UTF-8" standalone="no"?><svg xmlns="http://www.w3.org/2000/svg" xmlns:xlink="http://www.w3.org/1999/xlink" contentStyleType="text/css" height="884px" preserveAspectRatio="none" style="width:1341px;height:884px;background:#FFFFFF;" version="1.1" viewBox="0 0 1341 884" width="1341px" zoomAndPan="magnify"><defs/><g><rect fill="none" height="26.4883" id="_title" style="stroke:none;stroke-width:1.0;" width="194" x="566.75" y="5"/><text fill="#000000" font-family="sans-serif" font-size="14" font-weight="bold" lengthAdjust="spacing" textLength="184" x="571.75" y="23.5352">Monolith - Komponenten</text><!--MD5=[1adef828005f1e1211a601d8a9920c88]
cluster Docker-Dienste--><g id="cluster_Docker-Dienste"><rect fill="none" height="622" rx="2.5" ry="2.5" style="stroke:#181818;stroke-width:1.0;" width="1125" x="7" y="256.4883"/><text fill="#000000" font-family="sans-serif" font-size="14" font-weight="bold" lengthAdjust="spacing" textLength="114" x="512.5" y="272.0234">Docker-Dienste</text></g><!--MD5=[489b2b70e8a4fd6f3fbb29434dcab199]
cluster monolith--><g id="cluster_monolith"><polygon fill="none" points="39,530.4883,49,520.4883,343,520.4883,343,836.4883,333,846.4883,39,846.4883,39,530.4883" style="stroke:#181818;stroke-width:1.0;"/><line style="stroke:#181818;stroke-width:1.0;" x1="333" x2="343" y1="530.4883" y2="520.4883"/><line style="stroke:#181818;stroke-width:1.0;" x1="39" x2="333" y1="530.4883" y2="530.4883"/><line style="stroke:#181818;stroke-width:1.0;" x1="333" x2="333" y1="530.4883" y2="846.4883"/><text fill="#000000" font-family="sans-serif" font-size="14" font-weight="bold" lengthAdjust="spacing" textLength="65" x="154.5" y="547.0234">Monolith</text></g><!--MD5=[3001be5fbd02421531fae84a03d05a1b]
cluster webserver--><g id="cluster_webserver"><path d="M92.5,576.4883 L288.5,576.4883 A3.75,3.75 0 0 1 291,578.9883 L298,598.9766 L298.5,598.9766 A2.5,2.5 0 0 1 301,601.4766 L301,670.9883 A2.5,2.5 0 0 1 298.5,673.4883 L92.5,673.4883 A2.5,2.5 0 0 1 90,670.9883 L90,578.9883 A2.5,2.5 0 0 1 92.5,576.4883 " fill="none" style="stroke:#000000;stroke-width:1.5;"/><line style="stroke:#000000;stroke-width:1.5;" x1="90" x2="298" y1="598.9766" y2="598.9766"/><text fill="#000000" font-family="sans-serif" font-size="14" font-weight="bold" lengthAdjust="spacing" textLength="195" x="94" y="592.0234">Web-Server mit App-Logik</text></g><!--MD5=[0baca7324fcec12e9ff71112e7d863b3]
cluster feedback--><g id="cluster_feedback"><polygon fill="none" points="835,382.4883,845,372.4883,1108,372.4883,1108,703.4883,1098,713.4883,835,713.4883,835,382.4883" style="stroke:#181818;stroke-width:1.0;"/><line style="stroke:#181818;stroke-width:1.0;" x1="1098" x2="1108" y1="382.4883" y2="372.4883"/><line style="stroke:#181818;stroke-width:1.0;" x1="835" x2="1098" y1="382.4883" y2="382.4883"/><line style="stroke:#181818;stroke-width:1.0;" x1="1098" x2="1098" y1="382.4883" y2="713.4883"/><text fill="#000000" font-family="sans-serif" font-size="14" font-weight="bold" lengthAdjust="spacing" textLength="122" x="906.5" y="399.0234">Feedback-Dienst</text></g><!--MD5=[52d0a895dd9a500d37619d8281e4f769]
cluster feedback_webserver--><g id="cluster_feedback_webserver"><path d="M869.5,568.4883 L944.5,568.4883 A3.75,3.75 0 0 1 947,570.9883 L954,590.9766 L1073.5,590.9766 A2.5,2.5 0 0 1 1076,593.4766 L1076,678.9883 A2.5,2.5 0 0 1 1073.5,681.4883 L869.5,681.4883 A2.5,2.5 0 0 1 867,678.9883 L867,570.9883 A2.5,2.5 0 0 1 869.5,568.4883 " fill="none" style="stroke:#000000;stroke-width:1.5;"/><line style="stroke:#000000;stroke-width:1.5;" x1="867" x2="954" y1="590.9766" y2="590.9766"/><text fill="#000000" font-family="sans-serif" font-size="14" font-weight="bold" lengthAdjust="spacing" textLength="74" x="871" y="584.0234">Webserver</text></g><!--MD5=[23cbaadc18b1780d966e07254adaec4d]
cluster frontend--><g id="cluster_frontend"><polygon fill="none" points="375,309.4883,385,299.4883,811,299.4883,811,703.4883,801,713.4883,375,713.4883,375,309.4883" style="stroke:#181818;stroke-width:1.0;"/><line style="stroke:#181818;stroke-width:1.0;" x1="801" x2="811" y1="309.4883" y2="299.4883"/><line style="stroke:#181818;stroke-width:1.0;" x1="375" x2="801" y1="309.4883" y2="309.4883"/><line style="stroke:#181818;stroke-width:1.0;" x1="801" x2="801" y1="309.4883" y2="713.4883"/><text fill="#000000" font-family="sans-serif" font-size="14" font-weight="bold" lengthAdjust="spacing" textLength="123" x="527.5" y="326.0234">Frontend-Service</text></g><!--MD5=[e43b1d5ace51cf10c1ef33b793cbd9b3]
cluster front_webserver--><g id="cluster_front_webserver"><path d="M409.5,355.4883 L484.5,355.4883 A3.75,3.75 0 0 1 487,357.9883 L494,377.9766 L776.5,377.9766 A2.5,2.5 0 0 1 779,380.4766 L779,678.9883 A2.5,2.5 0 0 1 776.5,681.4883 L409.5,681.4883 A2.5,2.5 0 0 1 407,678.9883 L407,357.9883 A2.5,2.5 0 0 1 409.5,355.4883 " fill="none" style="stroke:#000000;stroke-width:1.5;"/><line style="stroke:#000000;stroke-width:1.5;" x1="407" x2="494" y1="377.9766" y2="377.9766"/><text fill="#000000" font-family="sans-serif" font-size="14" font-weight="bold" lengthAdjust="spacing" textLength="74" x="411" y="371.0234">Webserver</text></g><g id="elem_GMN9"><path d="M23,393.4883 L23,449.4199 L257,449.4199 L257,403.4883 L247,393.4883 L23,393.4883 " fill="#FEFFDD" style="stroke:#181818;stroke-width:0.5;"/><path d="M247,393.4883 L247,403.4883 L257,403.4883 L247,393.4883 " fill="#FEFFDD" style="stroke:#181818;stroke-width:1.0;"/><text fill="#000000" font-family="sans-serif" font-size="13" lengthAdjust="spacing" textLength="200" x="29" y="411.0566">diesen Rest unseres Monolithen</text><text fill="#000000" font-family="sans-serif" font-size="13" lengthAdjust="spacing" textLength="195" x="29" y="426.3672">lassen wir mal so unverbunden</text><text fill="#000000" font-family="sans-serif" font-size="13" lengthAdjust="spacing" textLength="213" x="29" y="441.6777">stehen - dazu kommen wir später</text></g><!--MD5=[7468467f3b6b392f1d176d828c753b77]
entity db--><g id="elem_db"><rect fill="#F1F1F1" height="46.4883" rx="2.5" ry="2.5" style="stroke:#181818;stroke-width:0.5;" width="248" x="71" y="776.4883"/><rect fill="#F1F1F1" height="10" style="stroke:#181818;stroke-width:0.5;" width="15" x="299" y="781.4883"/><rect fill="#F1F1F1" height="2" style="stroke:#181818;stroke-width:0.5;" width="4" x="297" y="783.4883"/><rect fill="#F1F1F1" height="2" style="stroke:#181818;stroke-width:0.5;" width="4" x="297" y="787.4883"/><text fill="#000000" font-family="sans-serif" font-size="14" lengthAdjust="spacing" textLength="208" x="86" y="810.0234">Datenbank - sqlite in-memory</text></g><!--MD5=[e2307af040e3f87d22824e7603ca28ec]
entity api--><g id="elem_api"><rect fill="#F1F1F1" height="46.4883" rx="2.5" ry="2.5" style="stroke:#181818;stroke-width:0.5;" width="110" x="140" y="611.4883"/><rect fill="#F1F1F1" height="10" style="stroke:#181818;stroke-width:0.5;" width="15" x="230" y="616.4883"/><rect fill="#F1F1F1" height="2" style="stroke:#181818;stroke-width:0.5;" width="4" x="228" y="618.4883"/><rect fill="#F1F1F1" height="2" style="stroke:#181818;stroke-width:0.5;" width="4" x="228" y="622.4883"/><text fill="#000000" font-family="sans-serif" font-size="14" lengthAdjust="spacing" textLength="70" x="155" y="645.0234">Demo-API</text></g><!--MD5=[21e97b73a141fb924fc1ccac418b209c]
entity http2--><g id="elem_http2"><ellipse cx="867" cy="421.4883" fill="#F1F1F1" rx="8" ry="8" style="stroke:#181818;stroke-width:0.5;"/><text fill="#000000" font-family="sans-serif" font-size="14" lengthAdjust="spacing" textLength="58" x="838" y="452.0234">HTTP:80</text></g><!--MD5=[09551326e6ce6f7108f17cf1661a8512]
entity form_backend--><g id="elem_form_backend"><rect fill="#F1F1F1" height="46.4883" rx="2.5" ry="2.5" style="stroke:#181818;stroke-width:0.5;" width="142" x="910" y="611.4883"/><rect fill="#F1F1F1" height="10" style="stroke:#181818;stroke-width:0.5;" width="15" x="1032" y="616.4883"/><rect fill="#F1F1F1" height="2" style="stroke:#181818;stroke-width:0.5;" width="4" x="1030" y="618.4883"/><rect fill="#F1F1F1" height="2" style="stroke:#181818;stroke-width:0.5;" width="4" x="1030" y="622.4883"/><text fill="#000000" font-family="sans-serif" font-size="14" lengthAdjust="spacing" textLength="102" x="925" y="645.0234">Form-backend</text></g><!--MD5=[de85803019e1fbc688521ea789918df2]
entity static_site--><g id="elem_static_site"><rect fill="#F1F1F1" height="46.4883" rx="2.5" ry="2.5" style="stroke:#181818;stroke-width:0.5;" width="146" x="450" y="398.4883"/><rect fill="#F1F1F1" height="10" style="stroke:#181818;stroke-width:0.5;" width="15" x="576" y="403.4883"/><rect fill="#F1F1F1" height="2" style="stroke:#181818;stroke-width:0.5;" width="4" x="574" y="405.4883"/><rect fill="#F1F1F1" height="2" style="stroke:#181818;stroke-width:0.5;" width="4" x="574" y="409.4883"/><text fill="#000000" font-family="sans-serif" font-size="14" lengthAdjust="spacing" textLength="106" x="465" y="432.0234">statische Seiten</text></g><!--MD5=[82b6d6c070392a2ef6fb7735d17b3b37]
entity site_builder--><g id="elem_site_builder"><rect fill="#F1F1F1" height="46.4883" rx="2.5" ry="2.5" style="stroke:#181818;stroke-width:0.5;" width="121" x="462.5" y="611.4883"/><rect fill="#F1F1F1" height="10" style="stroke:#181818;stroke-width:0.5;" width="15" x="563.5" y="616.4883"/><rect fill="#F1F1F1" height="2" style="stroke:#181818;stroke-width:0.5;" width="4" x="561.5" y="618.4883"/><rect fill="#F1F1F1" height="2" style="stroke:#181818;stroke-width:0.5;" width="4" x="561.5" y="622.4883"/><text fill="#000000" font-family="sans-serif" font-size="14" lengthAdjust="spacing" textLength="81" x="477.5" y="645.0234">Site-Builder</text></g><!--MD5=[e937783d151d78c9e87fd4c0d99f7485]
entity proxy--><g id="elem_proxy"><rect fill="#F1F1F1" height="46.4883" rx="2.5" ry="2.5" style="stroke:#181818;stroke-width:0.5;" width="123" x="631.5" y="398.4883"/><rect fill="#F1F1F1" height="10" style="stroke:#181818;stroke-width:0.5;" width="15" x="734.5" y="403.4883"/><rect fill="#F1F1F1" height="2" style="stroke:#181818;stroke-width:0.5;" width="4" x="732.5" y="405.4883"/><rect fill="#F1F1F1" height="2" style="stroke:#181818;stroke-width:0.5;" width="4" x="732.5" y="409.4883"/><text fill="#000000" font-family="sans-serif" font-size="14" lengthAdjust="spacing" textLength="83" x="646.5" y="432.0234">HTTP-Proxy</text></g><!--MD5=[9f65eaf450943a4c14297c25da91a260]
entity http1--><g id="elem_http1"><ellipse cx="415" cy="180.4883" fill="#F1F1F1" rx="8" ry="8" style="stroke:#181818;stroke-width:0.5;"/><text fill="#000000" font-family="sans-serif" font-size="14" lengthAdjust="spacing" textLength="58" x="386" y="211.0234">HTTP:80</text></g><!--MD5=[4a65e84059005d12693a083370a06717]
entity client--><g id="elem_client"><rect fill="#F1F1F1" height="46.4883" rx="2.5" ry="2.5" style="stroke:#181818;stroke-width:0.5;" width="151" x="427.5" y="44.4883"/><rect fill="#F1F1F1" height="10" style="stroke:#181818;stroke-width:0.5;" width="15" x="558.5" y="49.4883"/><rect fill="#F1F1F1" height="2" style="stroke:#181818;stroke-width:0.5;" width="4" x="556.5" y="51.4883"/><rect fill="#F1F1F1" height="2" style="stroke:#181818;stroke-width:0.5;" width="4" x="556.5" y="55.4883"/><text fill="#000000" font-family="sans-serif" font-size="14" lengthAdjust="spacing" textLength="111" x="442.5" y="78.0234">Client - Browser</text></g><!--MD5=[d112aecbd7ccc75573a6ee2503a173b3]
entity email--><g id="elem_email"><rect fill="#F1F1F1" height="46.4883" rx="2.5" ry="2.5" style="stroke:#181818;stroke-width:0.5;" width="187" x="1148.5" y="776.4883"/><rect fill="#F1F1F1" height="10" style="stroke:#181818;stroke-width:0.5;" width="15" x="1315.5" y="781.4883"/><rect fill="#F1F1F1" height="2" style="stroke:#181818;stroke-width:0.5;" width="4" x="1313.5" y="783.4883"/><rect fill="#F1F1F1" height="2" style="stroke:#181818;stroke-width:0.5;" width="4" x="1313.5" y="787.4883"/><text fill="#000000" font-family="sans-serif" font-size="14" lengthAdjust="spacing" textLength="147" x="1163.5" y="810.0234">Email-Dienst (extern)</text></g><!--MD5=[352ef287b9f0ec53b7305306ae20b7fa]
entity doc--><g id="elem_doc"><rect fill="#F1F1F1" height="46.4883" rx="2.5" ry="2.5" style="stroke:#181818;stroke-width:0.5;" width="207" x="487.5" y="157.4883"/><rect fill="#F1F1F1" height="10" style="stroke:#181818;stroke-width:0.5;" width="15" x="674.5" y="162.4883"/><rect fill="#F1F1F1" height="2" style="stroke:#181818;stroke-width:0.5;" width="4" x="672.5" y="164.4883"/><rect fill="#F1F1F1" height="2" style="stroke:#181818;stroke-width:0.5;" width="4" x="672.5" y="168.4883"/><text fill="#000000" font-family="sans-serif" font-size="14" lengthAdjust="spacing" textLength="167" x="502.5" y="191.0234">mkdocs-Dokumentation</text></g><!--MD5=[7d1d78373ef608f7adf2357833c16b72]
link GMN9 to monolith--><g id="link_GMN9_monolith"><path d="M128.03,449.6383 C121.85,463.6633 113.8044,481.9195 105.1856,501.4752 C103.0309,506.3641 100.8404,511.3342 98.6343,516.3397 C98.0828,517.5911 97.5303,518.8447 96.9771,520.0998 " fill="none" id="GMN9-monolith" style="stroke:#181818;stroke-width:1.0;stroke-dasharray:7.0,7.0;"/></g><!--MD5=[e2f383777bec66ad9b788ce423c8ab7a]
link http1 to front_webserver--><g id="link_http1_front_webserver"><path d="M415,189.4383 C415,209.8483 415,266.1383 415,318.0445 C415,324.5328 415,330.9526 415,337.2252 C415,340.3616 415,343.4611 415,346.514 C415,348.0405 415,349.5553 415,351.0572 C415,351.8082 415,352.5559 415,353.3003 C415,353.6725 415,354.0438 415,354.4143 " fill="none" id="http1-front_webserver" style="stroke:#181818;stroke-width:1.0;"/></g><!--MD5=[aba602e1ea189c49b6c82a447f07944a]
link http2 to feedback_webserver--><g id="link_http2_feedback_webserver"><path d="M867.31,430.7583 C868.04,449.9583 869.915,499.3683 871.6312,544.5995 C871.8458,550.2534 872.0578,555.8421 872.2649,561.2982 C872.3166,562.6622 872.3681,564.018 872.4191,565.3644 C872.4447,566.0377 872.4701,566.7085 872.4955,567.377 C872.5082,567.7112 872.5208,568.0448 872.5335,568.3777 " fill="none" id="http2-feedback_webserver" style="stroke:#181818;stroke-width:1.0;"/></g><!--MD5=[3d556cc0451c05b53be5380bd7df0014]
link client to http1--><g id="link_client_http1"><path d="M485.19,90.9483 C467.1,113.7683 439.73,148.2883 425.09,166.7683 " fill="none" id="client-to-http1" style="stroke:#181818;stroke-width:1.0;stroke-dasharray:7.0,7.0;"/><polygon fill="#181818" points="422.25,170.3383,430.9734,165.7663,425.3542,166.4186,424.7019,160.7995,422.25,170.3383" style="stroke:#181818;stroke-width:1.0;"/></g><!--MD5=[71dd533888987f0a118504f3d637bb63]
link proxy to http2--><g id="link_proxy_http2"><path d="M754.85,421.4883 C787.02,421.4883 819.19,421.4883 851.37,421.4883 " fill="none" id="proxy-to-http2" style="stroke:#181818;stroke-width:1.0;stroke-dasharray:7.0,7.0;"/><polygon fill="#181818" points="856.29,421.4883,847.29,417.4883,851.29,421.4883,847.29,425.4883,856.29,421.4883" style="stroke:#181818;stroke-width:1.0;"/></g><!--MD5=[b9294a1a2a5d8ea12e9e24571a9c9962]
link client to doc--><g id="link_client_doc"><path d="M520.81,90.9483 C534.88,108.7083 554.58,133.5483 569.53,152.3983 " fill="none" id="client-to-doc" style="stroke:#181818;stroke-width:1.0;stroke-dasharray:7.0,7.0;"/><polygon fill="#181818" points="572.28,155.8683,569.8281,146.3295,569.1758,151.9486,563.5566,151.2963,572.28,155.8683" style="stroke:#181818;stroke-width:1.0;"/></g><!--MD5=[1b9dbcfdb69d97b7ce5f2d963fc4ed75]
link api to db--><g id="link_api_db"><path d="M195,657.8083 C195,686.9883 195,738.1383 195,770.0583 " fill="none" id="api-to-db" style="stroke:#181818;stroke-width:1.0;stroke-dasharray:7.0,7.0;"/><polygon fill="#181818" points="195,774.6583,199,765.6583,195,769.6583,191,765.6583,195,774.6583" style="stroke:#181818;stroke-width:1.0;"/><text fill="#000000" font-family="sans-serif" font-size="13" lengthAdjust="spacing" textLength="49" x="196" y="743.0566">fragt ab</text></g><!--MD5=[87837a56bb10c021e459f8b68c62450d]
link form_backend to email--><g id="link_form_backend_email"><path d="M1017.02,657.9783 C1065.19,688.0683 1150.37,741.2583 1200.96,772.8583 " fill="none" id="form_backend-to-email" style="stroke:#181818;stroke-width:1.0;stroke-dasharray:7.0,7.0;"/><polygon fill="#181818" points="1205.07,775.4283,1199.5654,767.2613,1200.8324,772.7744,1195.3193,774.0414,1205.07,775.4283" style="stroke:#181818;stroke-width:1.0;"/><text fill="#000000" font-family="sans-serif" font-size="13" lengthAdjust="spacing" textLength="42" x="1158" y="743.0566">sendet</text></g><!--MD5=[b8ce1100f9ee281aaba5ddc98844d43a]
reverse link static_site to site_builder--><g id="link_static_site_site_builder"><path d="M523,451.1783 C523,493.7683 523,572.8083 523,611.2883 " fill="none" id="static_site-backto-site_builder" style="stroke:#181818;stroke-width:1.0;stroke-dasharray:7.0,7.0;"/><polygon fill="#181818" points="523,446.1883,519,455.1883,523,451.1883,527,455.1883,523,446.1883" style="stroke:#181818;stroke-width:1.0;"/><text fill="#000000" font-family="sans-serif" font-size="13" lengthAdjust="spacing" textLength="37" x="524" y="493.0566">liefert</text></g><!--MD5=[952364165a9bb740a33709a7b7ffa170]
@startuml
title Monolith - Komponenten

() "HTTP:80" as http1

[Client - Browser] as client
rectangle "Docker-Dienste" {
	node "Monolith" as monolith {
		package "Web-Server mit App-Logik" as webserver {
			[Demo-API] as api
		}
		[Datenbank - sqlite in-memory] as db
	}
	note top of monolith
		diesen Rest unseres Monolithen
		lassen wir mal so unverbunden
		stehen - dazu kommen wir später
	endnote

	node "Feedback-Dienst" as feedback {
		() "HTTP:80" as http2
		package "Webserver" as feedback_webserver {
			[Form-backend] as form_backend
		}

	}
	node "Frontend-Service" as frontend {
		package "Webserver" as front_webserver {
			[statische Seiten] as static_site
			[Site-Builder] as site_builder
			[HTTP-Proxy] as proxy
		}

	}
}


[Email-Dienst (extern)] as email
[mkdocs-Dokumentation] as doc

http1 - - front_webserver
http2 - - feedback_webserver

client ..> http1
proxy .right.> http2
client ..> doc
api ..> db: fragt ab
form_backend ..> email: sendet
site_builder .up.> static_site: liefert
@enduml

PlantUML version 1.2022.12(Sun Oct 23 20:12:26 CEST 2022)
(GPL source distribution)
Java Runtime: OpenJDK Runtime Environment
JVM: OpenJDK 64-Bit Server VM
Default Encoding: UTF-8
Language: de
Country: CH
--></g></svg>