<?xml version="1.0" encoding="UTF-8" standalone="no"?><svg xmlns="http://www.w3.org/2000/svg" xmlns:xlink="http://www.w3.org/1999/xlink" contentStyleType="text/css" height="815px" preserveAspectRatio="none" style="width:1142px;height:815px;background:#FFFFFF;" version="1.1" viewBox="0 0 1142 815" width="1142px" zoomAndPan="magnify"><defs/><g><rect height="26.4883" style="stroke:#00000000;stroke-width:1.0;fill:none;" width="194" x="467.25" y="5"/><text fill="#000000" font-family="sans-serif" font-size="14" font-weight="bold" lengthAdjust="spacing" textLength="184" x="472.25" y="23.5352">Monolith - Komponenten</text><!--MD5=[1adef828005f1e1211a601d8a9920c88]
cluster Docker-Dienste--><g id="cluster_Docker-Dienste"><rect height="553" rx="2.5" ry="2.5" style="stroke:#181818;stroke-width:1.0;fill:none;" width="926" x="7" y="256.4883"/><text fill="#000000" font-family="sans-serif" font-size="14" font-weight="bold" lengthAdjust="spacing" textLength="114" x="413" y="272.0234">Docker-Dienste</text></g><!--MD5=[489b2b70e8a4fd6f3fbb29434dcab199]
cluster monolith--><g id="cluster_monolith"><polygon points="491,382.4883,501,372.4883,909,372.4883,909,775.4883,899,785.4883,491,785.4883,491,382.4883" style="stroke:#181818;stroke-width:1.0;fill:none;"/><line style="stroke:#181818;stroke-width:1.0;fill:none;" x1="899" x2="909" y1="382.4883" y2="372.4883"/><line style="stroke:#181818;stroke-width:1.0;fill:none;" x1="491" x2="899" y1="382.4883" y2="382.4883"/><line style="stroke:#181818;stroke-width:1.0;fill:none;" x1="899" x2="899" y1="382.4883" y2="785.4883"/><text fill="#000000" font-family="sans-serif" font-size="14" font-weight="bold" lengthAdjust="spacing" textLength="65" x="663.5" y="399.0234">Monolith</text></g><!--MD5=[3001be5fbd02421531fae84a03d05a1b]
cluster webserver--><g id="cluster_webserver"><path d="M525.5,515.4883 L721.5,515.4883 A3.75,3.75 0 0 1 724,517.9883 L731,537.9766 L874.5,537.9766 A2.5,2.5 0 0 1 877,540.4766 L877,625.9883 A2.5,2.5 0 0 1 874.5,628.4883 L525.5,628.4883 A2.5,2.5 0 0 1 523,625.9883 L523,517.9883 A2.5,2.5 0 0 1 525.5,515.4883 " style="stroke:#000000;stroke-width:1.5;fill:none;"/><line style="stroke:#000000;stroke-width:1.5;fill:none;" x1="523" x2="731" y1="537.9766" y2="537.9766"/><text fill="#000000" font-family="sans-serif" font-size="14" font-weight="bold" lengthAdjust="spacing" textLength="195" x="527" y="531.0234">Web-Server mit App-Logik</text></g><!--MD5=[23cbaadc18b1780d966e07254adaec4d]
cluster frontend--><g id="cluster_frontend"><polygon points="31,309.4883,41,299.4883,467,299.4883,467,650.4883,457,660.4883,31,660.4883,31,309.4883" style="stroke:#181818;stroke-width:1.0;fill:none;"/><line style="stroke:#181818;stroke-width:1.0;fill:none;" x1="457" x2="467" y1="309.4883" y2="299.4883"/><line style="stroke:#181818;stroke-width:1.0;fill:none;" x1="31" x2="457" y1="309.4883" y2="309.4883"/><line style="stroke:#181818;stroke-width:1.0;fill:none;" x1="457" x2="457" y1="309.4883" y2="660.4883"/><text fill="#000000" font-family="sans-serif" font-size="14" font-weight="bold" lengthAdjust="spacing" textLength="123" x="183.5" y="326.0234">Frontend-Service</text></g><!--MD5=[e43b1d5ace51cf10c1ef33b793cbd9b3]
cluster front_webserver--><g id="cluster_front_webserver"><path d="M65.5,355.4883 L140.5,355.4883 A3.75,3.75 0 0 1 143,357.9883 L150,377.9766 L432.5,377.9766 A2.5,2.5 0 0 1 435,380.4766 L435,625.9883 A2.5,2.5 0 0 1 432.5,628.4883 L65.5,628.4883 A2.5,2.5 0 0 1 63,625.9883 L63,357.9883 A2.5,2.5 0 0 1 65.5,355.4883 " style="stroke:#000000;stroke-width:1.5;fill:none;"/><line style="stroke:#000000;stroke-width:1.5;fill:none;" x1="63" x2="150" y1="377.9766" y2="377.9766"/><text fill="#000000" font-family="sans-serif" font-size="14" font-weight="bold" lengthAdjust="spacing" textLength="74" x="67" y="371.0234">Webserver</text></g><!--MD5=[21e97b73a141fb924fc1ccac418b209c]
entity http2--><g id="elem_http2"><ellipse cx="523" cy="421.4883" fill="#F1F1F1" rx="8" ry="8" style="stroke:#181818;stroke-width:0.5;"/><text fill="#000000" font-family="sans-serif" font-size="14" lengthAdjust="spacing" textLength="58" x="494" y="452.0234">HTTP:80</text></g><!--MD5=[7468467f3b6b392f1d176d828c753b77]
entity db--><g id="elem_db"><rect fill="#F1F1F1" height="46.4883" rx="2.5" ry="2.5" style="stroke:#181818;stroke-width:0.5;" width="248" x="507" y="723.4883"/><rect fill="#F1F1F1" height="10" style="stroke:#181818;stroke-width:0.5;" width="15" x="735" y="728.4883"/><rect fill="#F1F1F1" height="2" style="stroke:#181818;stroke-width:0.5;" width="4" x="733" y="730.4883"/><rect fill="#F1F1F1" height="2" style="stroke:#181818;stroke-width:0.5;" width="4" x="733" y="734.4883"/><text fill="#000000" font-family="sans-serif" font-size="14" lengthAdjust="spacing" textLength="208" x="522" y="757.0234">Datenbank - sqlite in-memory</text></g><!--MD5=[09551326e6ce6f7108f17cf1661a8512]
entity form_backend--><g id="elem_form_backend"><rect fill="#F1F1F1" height="46.4883" rx="2.5" ry="2.5" style="stroke:#181818;stroke-width:0.5;" width="142" x="711" y="558.4883"/><rect fill="#F1F1F1" height="10" style="stroke:#181818;stroke-width:0.5;" width="15" x="833" y="563.4883"/><rect fill="#F1F1F1" height="2" style="stroke:#181818;stroke-width:0.5;" width="4" x="831" y="565.4883"/><rect fill="#F1F1F1" height="2" style="stroke:#181818;stroke-width:0.5;" width="4" x="831" y="569.4883"/><text fill="#000000" font-family="sans-serif" font-size="14" lengthAdjust="spacing" textLength="102" x="726" y="592.0234">Form-backend</text></g><!--MD5=[e2307af040e3f87d22824e7603ca28ec]
entity api--><g id="elem_api"><rect fill="#F1F1F1" height="46.4883" rx="2.5" ry="2.5" style="stroke:#181818;stroke-width:0.5;" width="110" x="566" y="558.4883"/><rect fill="#F1F1F1" height="10" style="stroke:#181818;stroke-width:0.5;" width="15" x="656" y="563.4883"/><rect fill="#F1F1F1" height="2" style="stroke:#181818;stroke-width:0.5;" width="4" x="654" y="565.4883"/><rect fill="#F1F1F1" height="2" style="stroke:#181818;stroke-width:0.5;" width="4" x="654" y="569.4883"/><text fill="#000000" font-family="sans-serif" font-size="14" lengthAdjust="spacing" textLength="70" x="581" y="592.0234">Demo-API</text></g><!--MD5=[de85803019e1fbc688521ea789918df2]
entity static_site--><g id="elem_static_site"><rect fill="#F1F1F1" height="46.4883" rx="2.5" ry="2.5" style="stroke:#181818;stroke-width:0.5;" width="146" x="106" y="398.4883"/><rect fill="#F1F1F1" height="10" style="stroke:#181818;stroke-width:0.5;" width="15" x="232" y="403.4883"/><rect fill="#F1F1F1" height="2" style="stroke:#181818;stroke-width:0.5;" width="4" x="230" y="405.4883"/><rect fill="#F1F1F1" height="2" style="stroke:#181818;stroke-width:0.5;" width="4" x="230" y="409.4883"/><text fill="#000000" font-family="sans-serif" font-size="14" lengthAdjust="spacing" textLength="106" x="121" y="432.0234">statische Seiten</text></g><!--MD5=[82b6d6c070392a2ef6fb7735d17b3b37]
entity site_builder--><g id="elem_site_builder"><rect fill="#F1F1F1" height="46.4883" rx="2.5" ry="2.5" style="stroke:#181818;stroke-width:0.5;" width="121" x="118.5" y="558.4883"/><rect fill="#F1F1F1" height="10" style="stroke:#181818;stroke-width:0.5;" width="15" x="219.5" y="563.4883"/><rect fill="#F1F1F1" height="2" style="stroke:#181818;stroke-width:0.5;" width="4" x="217.5" y="565.4883"/><rect fill="#F1F1F1" height="2" style="stroke:#181818;stroke-width:0.5;" width="4" x="217.5" y="569.4883"/><text fill="#000000" font-family="sans-serif" font-size="14" lengthAdjust="spacing" textLength="81" x="133.5" y="592.0234">Site-Builder</text></g><!--MD5=[e937783d151d78c9e87fd4c0d99f7485]
entity proxy--><g id="elem_proxy"><rect fill="#F1F1F1" height="46.4883" rx="2.5" ry="2.5" style="stroke:#181818;stroke-width:0.5;" width="123" x="287.5" y="398.4883"/><rect fill="#F1F1F1" height="10" style="stroke:#181818;stroke-width:0.5;" width="15" x="390.5" y="403.4883"/><rect fill="#F1F1F1" height="2" style="stroke:#181818;stroke-width:0.5;" width="4" x="388.5" y="405.4883"/><rect fill="#F1F1F1" height="2" style="stroke:#181818;stroke-width:0.5;" width="4" x="388.5" y="409.4883"/><text fill="#000000" font-family="sans-serif" font-size="14" lengthAdjust="spacing" textLength="83" x="302.5" y="432.0234">HTTP-Proxy</text></g><!--MD5=[9f65eaf450943a4c14297c25da91a260]
entity http1--><g id="elem_http1"><ellipse cx="71" cy="180.4883" fill="#F1F1F1" rx="8" ry="8" style="stroke:#181818;stroke-width:0.5;"/><text fill="#000000" font-family="sans-serif" font-size="14" lengthAdjust="spacing" textLength="58" x="42" y="211.0234">HTTP:80</text></g><!--MD5=[4a65e84059005d12693a083370a06717]
entity client--><g id="elem_client"><rect fill="#F1F1F1" height="46.4883" rx="2.5" ry="2.5" style="stroke:#181818;stroke-width:0.5;" width="151" x="83.5" y="44.4883"/><rect fill="#F1F1F1" height="10" style="stroke:#181818;stroke-width:0.5;" width="15" x="214.5" y="49.4883"/><rect fill="#F1F1F1" height="2" style="stroke:#181818;stroke-width:0.5;" width="4" x="212.5" y="51.4883"/><rect fill="#F1F1F1" height="2" style="stroke:#181818;stroke-width:0.5;" width="4" x="212.5" y="55.4883"/><text fill="#000000" font-family="sans-serif" font-size="14" lengthAdjust="spacing" textLength="111" x="98.5" y="78.0234">Client - Browser</text></g><!--MD5=[d112aecbd7ccc75573a6ee2503a173b3]
entity email--><g id="elem_email"><rect fill="#F1F1F1" height="46.4883" rx="2.5" ry="2.5" style="stroke:#181818;stroke-width:0.5;" width="187" x="949.5" y="723.4883"/><rect fill="#F1F1F1" height="10" style="stroke:#181818;stroke-width:0.5;" width="15" x="1116.5" y="728.4883"/><rect fill="#F1F1F1" height="2" style="stroke:#181818;stroke-width:0.5;" width="4" x="1114.5" y="730.4883"/><rect fill="#F1F1F1" height="2" style="stroke:#181818;stroke-width:0.5;" width="4" x="1114.5" y="734.4883"/><text fill="#000000" font-family="sans-serif" font-size="14" lengthAdjust="spacing" textLength="147" x="964.5" y="757.0234">Email-Dienst (extern)</text></g><!--MD5=[352ef287b9f0ec53b7305306ae20b7fa]
entity doc--><g id="elem_doc"><rect fill="#F1F1F1" height="46.4883" rx="2.5" ry="2.5" style="stroke:#181818;stroke-width:0.5;" width="207" x="143.5" y="157.4883"/><rect fill="#F1F1F1" height="10" style="stroke:#181818;stroke-width:0.5;" width="15" x="330.5" y="162.4883"/><rect fill="#F1F1F1" height="2" style="stroke:#181818;stroke-width:0.5;" width="4" x="328.5" y="164.4883"/><rect fill="#F1F1F1" height="2" style="stroke:#181818;stroke-width:0.5;" width="4" x="328.5" y="168.4883"/><text fill="#000000" font-family="sans-serif" font-size="14" lengthAdjust="spacing" textLength="167" x="158.5" y="191.0234">mkdocs-Dokumentation</text></g><!--MD5=[e2f383777bec66ad9b788ce423c8ab7a]
link http1 to front_webserver--><g id="link_http1_front_webserver"><path d="M71,189.7183 C71,210.4033 71,266.6308 71,318.402 C71,324.8734 71,331.2752 71,337.5292 C71,340.6563 71,343.7463 71,346.7897 C71,348.3114 71,349.8214 71,351.3185 C71,352.0671 71,352.8124 71,353.5544 C71,353.9253 71,354.2955 71,354.6647 " fill="none" id="http1-front_webserver" style="stroke:#181818;stroke-width:1.0;"/></g><!--MD5=[c01f6f50e701972f349ca2313275503f]
link http2 to webserver--><g id="link_http2_webserver"><path d="M523.41,430.5383 C523.81,438.4633 524.4725,451.5689 525.2442,466.8253 C525.6301,474.4535 526.0432,482.6194 526.4646,490.9443 C526.6752,495.1067 526.8879,499.3089 527.1002,503.5035 C527.2064,505.6007 527.3125,507.6961 527.4182,509.7837 C527.471,510.8275 527.5237,511.8693 527.5764,512.9084 C527.6027,513.428 527.6289,513.9469 527.6552,514.465 C527.6683,514.7241 527.6814,514.983 527.6945,515.2416 " fill="none" id="http2-webserver" style="stroke:#181818;stroke-width:1.0;"/></g><!--MD5=[3d556cc0451c05b53be5380bd7df0014]
link client to http1--><g id="link_client_http1"><path d="M141.4,90.6883 C123.19,113.6683 95.38,148.7283 80.76,167.1683 " fill="none" id="client-to-http1" style="stroke:#181818;stroke-width:1.0;stroke-dasharray:7.0,7.0;"/><polygon fill="#181818" points="77.35,171.4883,86.0734,166.9163,80.4542,167.5686,79.8019,161.9495,77.35,171.4883" style="stroke:#181818;stroke-width:1.0;"/></g><!--MD5=[71dd533888987f0a118504f3d637bb63]
link proxy to http2--><g id="link_proxy_http2"><path d="M410.51,421.4883 C443.18,421.4883 475.86,421.4883 508.53,421.4883 " fill="none" id="proxy-to-http2" style="stroke:#181818;stroke-width:1.0;stroke-dasharray:7.0,7.0;"/><polygon fill="#181818" points="513.77,421.4883,504.77,417.4883,508.77,421.4883,504.77,425.4883,513.77,421.4883" style="stroke:#181818;stroke-width:1.0;"/></g><!--MD5=[b9294a1a2a5d8ea12e9e24571a9c9962]
link client to doc--><g id="link_client_doc"><path d="M176.6,90.6883 C190.87,108.6783 211.01,134.0983 226.1,153.1283 " fill="none" id="client-to-doc" style="stroke:#181818;stroke-width:1.0;stroke-dasharray:7.0,7.0;"/><polygon fill="#181818" points="229.43,157.3283,226.9781,147.7895,226.3258,153.4086,220.7066,152.7563,229.43,157.3283" style="stroke:#181818;stroke-width:1.0;"/></g><!--MD5=[1b9dbcfdb69d97b7ce5f2d963fc4ed75]
link api to db--><g id="link_api_db"><path d="M622.37,604.8083 C624.18,634.3183 627.37,686.2783 629.32,718.1183 " fill="none" id="api-to-db" style="stroke:#181818;stroke-width:1.0;stroke-dasharray:7.0,7.0;"/><polygon fill="#181818" points="629.65,723.4383,633.1038,714.2149,629.3505,718.4473,625.1182,714.694,629.65,723.4383" style="stroke:#181818;stroke-width:1.0;"/><text fill="#000000" font-family="sans-serif" font-size="13" lengthAdjust="spacing" textLength="49" x="628" y="690.0566">fragt ab</text></g><!--MD5=[87837a56bb10c021e459f8b68c62450d]
link form_backend to email--><g id="link_form_backend_email"><path d="M817.47,604.6383 C865.91,634.8883 952.49,688.9583 1003.12,720.5883 " fill="none" id="form_backend-to-email" style="stroke:#181818;stroke-width:1.0;stroke-dasharray:7.0,7.0;"/><polygon fill="#181818" points="1007.61,723.3883,1002.0857,715.2347,1003.366,720.7447,997.8559,722.0251,1007.61,723.3883" style="stroke:#181818;stroke-width:1.0;"/><text fill="#000000" font-family="sans-serif" font-size="13" lengthAdjust="spacing" textLength="42" x="959" y="690.0566">sendet</text></g><!--MD5=[b8ce1100f9ee281aaba5ddc98844d43a]
reverse link static_site to site_builder--><g id="link_static_site_site_builder"><path d="M179,449.9283 C179,480.6683 179,529.8883 179,558.2983 " fill="none" id="static_site-backto-site_builder" style="stroke:#181818;stroke-width:1.0;stroke-dasharray:7.0,7.0;"/><polygon fill="#181818" points="179,444.7883,175,453.7883,179,449.7883,183,453.7883,179,444.7883" style="stroke:#181818;stroke-width:1.0;"/><text fill="#000000" font-family="sans-serif" font-size="13" lengthAdjust="spacing" textLength="37" x="180" y="488.0566">liefert</text></g><!--MD5=[5f21efffe4ba161a1016bfd35ee0327b]
@startuml
title Monolith - Komponenten

() "HTTP:80" as http1

[Client - Browser] as client
rectangle "Docker-Dienste" {
	node "Monolith" as monolith {
		() "HTTP:80" as http2
		package "Web-Server mit App-Logik" as webserver {
			[Form-backend] as form_backend
			[Demo-API] as api
		}
		[Datenbank - sqlite in-memory] as db
	}
	node "Frontend-Service" as frontend {
		package "Webserver" as front_webserver {
			[statische Seiten] as static_site
			[Site-Builder] as site_builder
			[HTTP-Proxy] as proxy
		}

	}
}


[Email-Dienst (extern)] as email
[mkdocs-Dokumentation] as doc

http1 - - front_webserver
http2 - - webserver

client ..> http1
proxy .right.> http2
client ..> doc
api ..> db: fragt ab
form_backend ..> email: sendet
site_builder .up.> static_site: liefert
@enduml

PlantUML version 1.2022.6(Tue Jun 21 19:34:49 CEST 2022)
(GPL source distribution)
Java Runtime: OpenJDK Runtime Environment
JVM: OpenJDK 64-Bit Server VM
Default Encoding: UTF-8
Language: de
Country: CH
--></g></svg>