<svg xmlns="http://www.w3.org/2000/svg" xmlns:xlink="http://www.w3.org/1999/xlink" contentStyleType="text/css" data-diagram-type="DESCRIPTION" height="325px" preserveAspectRatio="none" style="width:562px;height:325px;background:#FFFFFF;" version="1.1" viewBox="0 0 562 325" width="562px" zoomAndPan="magnify"><title>PiGallery-Container</title><defs/><g><g class="title" data-source-line="2"><text fill="#000000" font-family="sans-serif" font-size="14" font-weight="bold" lengthAdjust="spacing" textLength="142.9121" x="202.5439" y="23.5352">PiGallery-Container</text></g><!--cluster docker--><g class="cluster" data-entity="docker" data-source-line="4" data-uid="ent0002" id="cluster_docker"><path d="M8.5,43.4883 L98.4902,43.4883 A3.75,3.75 0 0 1 100.9902,45.9883 L107.9902,65.9766 L552.5,65.9766 A2.5,2.5 0 0 1 555,68.4766 L555,315.9683 A2.5,2.5 0 0 1 552.5,318.4683 L8.5,318.4683 A2.5,2.5 0 0 1 6,315.9683 L6,45.9883 A2.5,2.5 0 0 1 8.5,43.4883" fill="none" style="stroke:#000000;stroke-width:1.5;"/><line style="stroke:#000000;stroke-width:1.5;" x1="6" x2="107.9902" y1="65.9766" y2="65.9766"/><text fill="#000000" font-family="sans-serif" font-size="14" font-weight="bold" lengthAdjust="spacing" textLength="88.9902" x="10" y="59.0234">Docker Host</text></g><!--cluster pigallery--><g class="cluster" data-entity="pigallery" data-source-line="5" data-uid="ent0003" id="cluster_pigallery"><polygon fill="none" points="30,96.4883,40,86.4883,531,86.4883,531,284.4683,521,294.4683,30,294.4683,30,96.4883" style="stroke:#181818;stroke-width:1;"/><line style="stroke:#181818;stroke-width:1;" x1="521" x2="531" y1="96.4883" y2="86.4883"/><line style="stroke:#181818;stroke-width:1;" x1="30" x2="521" y1="96.4883" y2="96.4883"/><line style="stroke:#181818;stroke-width:1;" x1="521" x2="521" y1="96.4883" y2="294.4683"/><text fill="#000000" font-family="sans-serif" font-size="14" font-weight="bold" lengthAdjust="spacing" textLength="63.1299" x="244.9351" y="113.0234">pigallery</text></g><!--entity inport--><g class="entity" data-entity="inport" data-source-line="6" data-uid="ent0004" id="entity_inport"><ellipse cx="197" cy="149.7383" fill="#F1F1F1" rx="8" ry="8" style="stroke:#181818;stroke-width:0.5;"/><text fill="#000000" font-family="sans-serif" font-size="14" lengthAdjust="spacing" textLength="22.1348" x="185.9326" y="180.2734">:80</text></g><!--entity data--><g class="entity" data-entity="data" data-source-line="10" data-uid="ent0006" id="entity_data"><path d="M46.3,242.9783 C46.3,232.9783 119.0026,232.9783 119.0026,232.9783 C119.0026,232.9783 191.7053,232.9783 191.7053,242.9783 L191.7053,268.4666 C191.7053,278.4666 119.0026,278.4666 119.0026,278.4666 C119.0026,278.4666 46.3,278.4666 46.3,268.4666 L46.3,242.9783" fill="#F1F1F1" style="stroke:#181818;stroke-width:0.5;"/><path d="M46.3,242.9783 C46.3,252.9783 119.0026,252.9783 119.0026,252.9783 C119.0026,252.9783 191.7053,252.9783 191.7053,242.9783" fill="none" style="stroke:#181818;stroke-width:0.5;"/><text fill="#000000" font-family="sans-serif" font-size="14" lengthAdjust="spacing" textLength="125.4053" x="56.3" y="270.5134">/app/data/images</text></g><!--entity config--><g class="entity" data-entity="config" data-source-line="11" data-uid="ent0007" id="entity_config"><path d="M226.36,242.9783 C226.36,232.9783 295.9967,232.9783 295.9967,232.9783 C295.9967,232.9783 365.6334,232.9783 365.6334,242.9783 L365.6334,268.4666 C365.6334,278.4666 295.9967,278.4666 295.9967,278.4666 C295.9967,278.4666 226.36,278.4666 226.36,268.4666 L226.36,242.9783" fill="#F1F1F1" style="stroke:#181818;stroke-width:0.5;"/><path d="M226.36,242.9783 C226.36,252.9783 295.9967,252.9783 295.9967,252.9783 C295.9967,252.9783 365.6334,252.9783 365.6334,242.9783" fill="none" style="stroke:#181818;stroke-width:0.5;"/><text fill="#000000" font-family="sans-serif" font-size="14" lengthAdjust="spacing" textLength="119.2734" x="236.36" y="270.5134">/app/data/config</text></g><!--entity db--><g class="entity" data-entity="db" data-source-line="12" data-uid="ent0008" id="entity_db"><path d="M400.74,242.9783 C400.74,232.9783 457.9968,232.9783 457.9968,232.9783 C457.9968,232.9783 515.2537,232.9783 515.2537,242.9783 L515.2537,268.4666 C515.2537,278.4666 457.9968,278.4666 457.9968,278.4666 C457.9968,278.4666 400.74,278.4666 400.74,268.4666 L400.74,242.9783" fill="#F1F1F1" style="stroke:#181818;stroke-width:0.5;"/><path d="M400.74,242.9783 C400.74,252.9783 457.9968,252.9783 457.9968,252.9783 C457.9968,252.9783 515.2537,252.9783 515.2537,242.9783" fill="none" style="stroke:#181818;stroke-width:0.5;"/><text fill="#000000" font-family="sans-serif" font-size="14" lengthAdjust="spacing" textLength="94.5137" x="410.74" y="270.5134">/app/data/db</text></g><!--entity Webserver--><g class="entity" data-entity="Webserver" data-source-line="7" data-uid="ent0005" id="entity_Webserver"><rect fill="#F1F1F1" height="46.4883" rx="2.5" ry="2.5" style="stroke:#181818;stroke-width:0.5;" width="110.0273" x="240.99" y="126.4883"/><rect fill="#F1F1F1" height="10" style="stroke:#181818;stroke-width:0.5;" width="15" x="331.0173" y="131.4883"/><rect fill="#F1F1F1" height="2" style="stroke:#181818;stroke-width:0.5;" width="4" x="329.0173" y="133.4883"/><rect fill="#F1F1F1" height="2" style="stroke:#181818;stroke-width:0.5;" width="4" x="329.0173" y="137.4883"/><text fill="#000000" font-family="sans-serif" font-size="14" lengthAdjust="spacing" textLength="70.0273" x="255.99" y="160.0234">Webserver</text></g><!--link inport to Webserver--><g class="link" data-entity-1="inport" data-entity-2="Webserver" data-source-line="14" data-uid="lnk9" id="link_inport_Webserver"><path d="M206.28,149.7383 C217.73,149.7383 229.18,149.7383 240.63,149.7383" fill="none" id="inport-Webserver" style="stroke:#181818;stroke-width:1;"/></g><!--link Webserver to data--><g class="link" data-entity-1="Webserver" data-entity-2="data" data-source-line="15" data-uid="lnk10" id="link_Webserver_data"><path d="M257.59,173.2983 C227.7,190.8583 191.6133,212.0591 161.8933,229.5191" fill="none" id="Webserver-to-data" style="stroke:#181818;stroke-width:1;"/><polygon fill="#181818" points="156.72,232.5583,166.5061,231.4483,161.0311,230.0256,162.4538,224.5506,156.72,232.5583" style="stroke:#181818;stroke-width:1;"/></g><!--link Webserver to config--><g class="link" data-entity-1="Webserver" data-entity-2="config" data-source-line="16" data-uid="lnk11" id="link_Webserver_config"><path d="M296,173.2983 C296,190.8583 296,209.0983 296,226.5583" fill="none" id="Webserver-to-config" style="stroke:#181818;stroke-width:1;"/><polygon fill="#181818" points="296,232.5583,300,223.5583,296,227.5583,292,223.5583,296,232.5583" style="stroke:#181818;stroke-width:1;"/></g><!--link Webserver to db--><g class="link" data-entity-1="Webserver" data-entity-2="db" data-source-line="17" data-uid="lnk12" id="link_Webserver_db"><path d="M331.15,173.2983 C358.51,190.8583 391.2208,211.8571 418.4208,229.3171" fill="none" id="Webserver-to-db" style="stroke:#181818;stroke-width:1;"/><polygon fill="#181818" points="423.47,232.5583,418.0569,224.3304,419.2623,229.8573,413.7354,231.0627,423.47,232.5583" style="stroke:#181818;stroke-width:1;"/></g><!--SRC=[TK-n2i8m49tDLnpPInt5mKL1HpVdIt8jeMqIaY28zD-z9bXGw12uz-wzUo_Pvf7WRgyuZXHVpTcxZDPH52AW7h0da1Ul1ufmyobBm0IcuhVOEMy8WkshUM5srcMA7Mhs7G_xehSk-9Y1bzfFmJjo6UI3LABuf2ZPngkPdy6C2XDRMmoXNM1h9-wGQYxZ3PNshhDzKTLnGsTKlQH4gLfwDR1sONATeMbEtyXVSatuqoh1lvZ51m00]--></g></svg>